<?xml version="1.0" encoding="UTF-8"?>
<!DOCTYPE svg PUBLIC "-//W3C//DTD SVG 1.1//EN" "http://www.w3.org/Graphics/SVG/1.1/DTD/svg11.dtd">
<svg xmlns="http://www.w3.org/2000/svg" version="1.1" width="500px" height="500px" style="shape-rendering:geometricPrecision; text-rendering:geometricPrecision; image-rendering:optimizeQuality; fill-rule:evenodd; clip-rule:evenodd" xmlns:xlink="http://www.w3.org/1999/xlink">
<g><path style="opacity:1" fill="#2b3f2c" d="M 261.5,69.5 C 259.795,68.4647 258.128,68.4647 256.5,69.5C 256.277,68.0333 255.944,66.5333 255.5,65C 252.535,62.6703 249.368,62.1703 246,63.5C 245.626,62.5838 245.126,61.7504 244.5,61C 234.167,60.3333 223.833,60.3333 213.5,61C 216.464,61.8403 216.797,62.8403 214.5,64C 215.358,65.57 216.025,67.2367 216.5,69C 212.531,76.3008 210.531,84.1342 210.5,92.5C 210.737,93.791 210.404,94.791 209.5,95.5C 207.815,99.3509 206.815,103.518 206.5,108C 207.484,109.82 207.317,111.32 206,112.5C 205.667,112.167 205.333,111.833 205,111.5C 204.647,112.672 204.813,113.838 205.5,115C 205.056,116.762 204.556,116.595 204,114.5C 203.405,115.899 203.572,117.232 204.5,118.5C 202.117,127.083 200.117,135.75 198.5,144.5C 197.609,143.89 196.609,143.557 195.5,143.5C 197.299,137.289 198.132,130.956 198,124.5C 197.692,125.308 197.192,125.975 196.5,126.5C 195.02,121.906 193.854,117.239 193,112.5C 192.586,112.043 192.086,111.709 191.5,111.5C 191.363,114.553 191.363,117.886 191.5,121.5C 186.318,122.116 185.651,123.95 189.5,127C 187.833,127.833 186.167,128.667 184.5,129.5C 183.749,128.624 183.249,127.624 183,126.5C 180.619,127.435 178.119,127.768 175.5,127.5C 174.636,132.734 174.636,138.067 175.5,143.5C 169.833,143.5 164.167,143.5 158.5,143.5C 158.5,144.833 158.5,146.167 158.5,147.5C 156.5,147.5 154.5,147.5 152.5,147.5C 152.5,146.167 152.5,144.833 152.5,143.5C 153.833,143.5 155.167,143.5 156.5,143.5C 158.909,138.032 161.242,132.532 163.5,127C 162.646,125.978 161.646,125.145 160.5,124.5C 158.87,127.298 157.037,129.965 155,132.5C 153.736,134.607 151.903,135.607 149.5,135.5C 149.334,141.842 149.5,148.175 150,154.5C 150.333,154.833 150.667,155.167 151,155.5C 153.69,154.071 156.523,153.071 159.5,152.5C 159.5,154.5 159.5,156.5 159.5,158.5C 156.833,157.833 154.167,157.167 151.5,156.5C 151.5,157.833 151.5,159.167 151.5,160.5C 148.183,159.779 144.849,159.612 141.5,160C 140.874,160.75 140.374,161.584 140,162.5C 138.374,159.002 137.207,155.335 136.5,151.5C 132.992,154.317 131.659,157.983 132.5,162.5C 133.5,162.5 134.5,162.5 135.5,162.5C 134.563,164.838 133.23,167.005 131.5,169C 131.89,171.459 133.224,173.126 135.5,174C 133.119,175.247 133.453,175.58 136.5,175C 138.5,172.667 140.5,170.333 142.5,168C 144.134,167.506 145.801,167.34 147.5,167.5C 147.534,171.63 148.201,175.63 149.5,179.5C 148.167,179.5 146.833,179.5 145.5,179.5C 145.109,183.383 145.776,187.05 147.5,190.5C 146.311,191.429 144.978,191.762 143.5,191.5C 143.613,194.049 142.946,196.382 141.5,198.5C 143.26,201.212 143.927,204.212 143.5,207.5C 140.833,207.5 138.167,207.5 135.5,207.5C 135.073,204.212 135.74,201.212 137.5,198.5C 136.532,195.727 135.199,193.227 133.5,191C 134.804,190.196 135.471,189.029 135.5,187.5C 133.594,185.358 132.928,183.024 133.5,180.5C 132.726,179.289 131.893,179.289 131,180.5C 128.517,183.521 129.017,185.854 132.5,187.5C 130.803,188.364 129.637,189.697 129,191.5C 127.293,190.862 125.46,190.862 123.5,191.5C 122.347,190.687 122.347,189.687 123.5,188.5C 125.585,187.459 127.252,185.959 128.5,184C 127.552,183.517 126.552,183.351 125.5,183.5C 125.5,178.167 125.5,172.833 125.5,167.5C 124.127,167.657 122.793,167.49 121.5,167C 122.781,164.597 124.614,162.763 127,161.5C 128.465,162.369 129.631,161.869 130.5,160C 127.224,154.111 127.224,148.111 130.5,142C 129.5,140.333 128.5,138.667 127.5,137C 128.411,133.855 129.245,130.688 130,127.5C 131.451,137.957 133.284,138.124 135.5,128C 133.3,124.991 130.634,123.824 127.5,124.5C 128.833,122.833 130.167,121.167 131.5,119.5C 133.407,121.76 135.407,121.927 137.5,120C 135.801,117.773 134.468,115.273 133.5,112.5C 135.078,111.702 136.744,111.202 138.5,111C 134.845,109.794 131.178,108.461 127.5,107C 130.561,104.965 133.895,103.799 137.5,103.5C 137.336,100.813 137.503,98.146 138,95.5C 139.957,94.1111 141.79,92.6111 143.5,91C 143.18,89.3468 142.18,88.3468 140.5,88C 143.035,87.0718 144.035,85.2385 143.5,82.5C 139.737,82.1428 136.07,81.3095 132.5,80C 135.898,76.8615 136.231,73.5281 133.5,70C 134.944,68.2932 136.277,66.4599 137.5,64.5C 132.493,63.5238 127.659,62.8572 123,62.5C 121.782,64.0192 120.282,65.1859 118.5,66C 119.863,68.1293 119.529,68.6293 117.5,67.5C 116.757,68.9079 115.923,70.2412 115,71.5C 112.639,70.9343 110.806,71.9343 109.5,74.5C 108.473,73.2086 107.473,73.2086 106.5,74.5C 106.5,73.5 106.5,72.5 106.5,71.5C 110.492,65.6645 115.825,61.4978 122.5,59C 163.167,58.3333 203.833,58.3333 244.5,59C 251.642,60.2033 257.309,63.7033 261.5,69.5 Z"/></g>
<g><path style="opacity:1" fill="#1f2a18" d="M 261.5,69.5 C 263.935,73.2582 266.102,77.2582 268,81.5C 275.752,103.595 283.586,125.595 291.5,147.5C 292.445,153.487 292.612,159.487 292,165.5C 292.923,166.759 293.757,168.092 294.5,169.5C 295.086,169.291 295.586,168.957 296,168.5C 296.5,169.667 297.333,170.5 298.5,171C 296.82,171.347 295.82,172.347 295.5,174C 296.759,176.868 298.092,179.701 299.5,182.5C 299.154,183.696 298.654,183.696 298,182.5C 297.192,184.579 297.359,186.579 298.5,188.5C 301.06,187.565 301.726,188.399 300.5,191C 301.448,191.483 302.448,191.649 303.5,191.5C 303.372,195.204 305.038,197.704 308.5,199C 307.424,200.726 307.257,202.559 308,204.5C 311.383,207.358 312.717,210.692 312,214.5C 310.935,212.604 310.102,212.437 309.5,214C 310.601,216.216 311.934,218.216 313.5,220C 313.259,222.848 312.593,225.848 311.5,229C 313.944,229.399 314.61,228.566 313.5,226.5C 314.035,224.729 314.869,224.396 316,225.5C 316.595,226.899 316.428,228.232 315.5,229.5C 316.767,234.206 318.767,238.539 321.5,242.5C 321.167,243.5 320.833,244.5 320.5,245.5C 318.786,244.391 318.119,245.058 318.5,247.5C 317.5,247.5 316.5,247.5 315.5,247.5C 315.951,241.877 314.951,236.543 312.5,231.5C 311.52,234.086 311.187,236.753 311.5,239.5C 312.5,239.5 313.5,239.5 314.5,239.5C 314.72,245.142 313.72,250.475 311.5,255.5C 309.5,255.5 307.5,255.5 305.5,255.5C 305.335,259.182 305.501,262.848 306,266.5C 306.308,267.308 306.808,267.975 307.5,268.5C 310.949,263.149 313.783,257.482 316,251.5C 317.774,253.513 317.607,255.513 315.5,257.5C 315.719,258.938 316.219,260.271 317,261.5C 317.667,259.5 318.333,257.5 319,255.5C 319.769,258.099 319.602,260.599 318.5,263C 319.448,263.483 320.448,263.649 321.5,263.5C 321.411,266.709 321.744,269.875 322.5,273C 321.123,277.763 320.123,282.596 319.5,287.5C 318.207,288.842 317.374,290.509 317,292.5C 315.706,291.146 315.54,289.812 316.5,288.5C 315.409,287.112 314.076,286.612 312.5,287C 313.833,288.667 313.833,290.333 312.5,292C 313.5,292.333 314.5,292.667 315.5,293C 312.169,293.794 310.336,295.961 310,299.5C 309.744,296.443 309.244,293.443 308.5,290.5C 309.518,288.107 308.851,286.107 306.5,284.5C 305.833,284.833 305.167,285.167 304.5,285.5C 305.458,291 305.458,296.667 304.5,302.5C 303.506,298.548 302.84,294.548 302.5,290.5C 300.167,290.5 297.833,290.5 295.5,290.5C 293.031,285.613 292.864,280.613 295,275.5C 295.49,276.793 295.657,278.127 295.5,279.5C 296.675,279.719 297.675,279.386 298.5,278.5C 294.16,271.513 292.493,263.846 293.5,255.5C 291.5,255.5 289.5,255.5 287.5,255.5C 288.331,250.855 287.164,249.855 284,252.5C 283.506,250.866 283.34,249.199 283.5,247.5C 288.833,246.833 288.833,246.167 283.5,245.5C 283.259,242.103 282.593,238.769 281.5,235.5C 281.63,233.625 281.963,231.792 282.5,230C 280.975,227.97 279.642,225.803 278.5,223.5C 277.505,228.792 277.172,234.125 277.5,239.5C 272.41,238.941 268.41,236.441 265.5,232C 267.592,231.047 267.925,229.714 266.5,228C 262.949,225.774 261.282,226.941 261.5,231.5C 260.5,231.5 259.5,231.5 258.5,231.5C 258.5,234.167 258.5,236.833 258.5,239.5C 256.645,239.272 255.812,239.939 256,241.5C 258.386,242.763 260.219,244.597 261.5,247C 261.833,247.167 262.167,247.333 262.5,247.5C 263.251,246.624 263.751,245.624 264,244.5C 264.465,245.931 265.299,247.097 266.5,248C 263.19,249.787 259.857,249.621 256.5,247.5C 255.571,248.689 255.238,250.022 255.5,251.5C 259.273,251.263 262.94,251.763 266.5,253C 267.609,254.813 266.942,255.646 264.5,255.5C 264.67,260.859 265.17,266.192 266,271.5C 267,273.833 268.667,275.5 271,276.5C 273.001,282.673 273.834,289.006 273.5,295.5C 274.675,295.281 275.675,295.614 276.5,296.5C 274.427,298.656 272.76,300.989 271.5,303.5C 272.5,303.5 273.5,303.5 274.5,303.5C 274.221,306.118 273.554,308.618 272.5,311C 273.308,311.308 273.975,311.808 274.5,312.5C 273.5,314.5 272.5,316.5 271.5,318.5C 272.311,319.216 272.978,320.05 273.5,321C 272.571,322.077 271.904,323.244 271.5,324.5C 270.053,323.378 269.053,321.878 268.5,320C 266.19,319.503 263.857,319.337 261.5,319.5C 261.829,313.463 261.496,307.463 260.5,301.5C 258.128,298.879 257.462,299.212 258.5,302.5C 257.689,303.216 257.022,304.05 256.5,305C 258.523,309.727 258.856,314.56 257.5,319.5C 256.354,318.855 255.354,318.022 254.5,317C 255.517,315.951 255.684,314.784 255,313.5C 253.647,314.685 252.48,316.019 251.5,317.5C 252.167,317.833 252.833,318.167 253.5,318.5C 253.291,319.086 252.957,319.586 252.5,320C 253.406,322.447 254.239,324.947 255,327.5C 255.333,327.167 255.667,326.833 256,326.5C 256.637,328.303 257.803,329.636 259.5,330.5C 258.899,333.243 260.233,334.576 263.5,334.5C 263.663,339.578 262.496,340.245 260,336.5C 258.434,337.061 257.101,336.394 256,334.5C 255.55,338.188 255.717,341.854 256.5,345.5C 244.897,311.778 233.897,277.778 223.5,243.5C 222.597,237.784 221.764,232.118 221,226.5C 222.193,228.605 223.86,230.272 226,231.5C 226.041,235.448 227.874,237.948 231.5,239C 230.874,239.75 230.374,240.584 230,241.5C 229.577,240.044 228.744,239.544 227.5,240C 228.594,241.78 229.594,243.614 230.5,245.5C 230.669,244.603 231.002,243.603 231.5,242.5C 232.192,243.025 232.692,243.692 233,244.5C 236.758,233.467 238.925,222.134 239.5,210.5C 236.833,210.5 234.167,210.5 231.5,210.5C 231.5,209.5 231.5,208.5 231.5,207.5C 232.5,207.5 233.5,207.5 234.5,207.5C 234.649,206.448 234.483,205.448 234,204.5C 232.021,203.286 230.521,201.619 229.5,199.5C 227.983,200.911 226.649,200.744 225.5,199C 226.733,197.333 228.067,195.833 229.5,194.5C 231.092,193.398 231.925,194.065 232,196.5C 234.167,195.667 235.667,194.167 236.5,192C 238.473,191.505 240.473,191.338 242.5,191.5C 242.172,196.875 242.505,202.208 243.5,207.5C 244.48,204.914 244.813,202.247 244.5,199.5C 245.822,199.67 246.989,199.337 248,198.5C 250.382,199.554 252.882,200.221 255.5,200.5C 255.5,201.5 255.5,202.5 255.5,203.5C 254.5,203.5 253.5,203.5 252.5,203.5C 252.5,204.5 252.5,205.5 252.5,206.5C 253.93,206.421 255.264,206.754 256.5,207.5C 256.833,206.167 257.167,204.833 257.5,203.5C 256.979,201.076 256.312,198.743 255.5,196.5C 254.5,196.5 253.5,196.5 252.5,196.5C 252.579,195.07 252.246,193.736 251.5,192.5C 252.833,191.833 254.167,191.167 255.5,190.5C 251.489,189.969 247.656,188.969 244,187.5C 243.535,186.069 242.701,184.903 241.5,184C 242.833,183.667 244.167,183.333 245.5,183C 244.62,181.644 244.286,180.144 244.5,178.5C 238.031,177.052 238.031,176.052 244.5,175.5C 244.5,172.833 244.5,170.167 244.5,167.5C 243.5,167.5 242.5,167.5 241.5,167.5C 242.506,160.539 243.34,153.539 244,146.5C 246.15,148.852 247.316,148.685 247.5,146C 246.317,143.396 244.984,140.896 243.5,138.5C 240.469,142.284 239.136,146.617 239.5,151.5C 237.833,151.5 236.167,151.5 234.5,151.5C 232.457,146.648 230.623,141.648 229,136.5C 227.266,135.751 225.433,135.251 223.5,135C 226.564,130.153 226.898,124.986 224.5,119.5C 223.833,122.167 223.167,124.833 222.5,127.5C 221.167,125.833 219.833,124.167 218.5,122.5C 217.667,123.5 216.833,124.5 216,125.5C 215.505,123.527 215.338,121.527 215.5,119.5C 214.5,119.5 213.5,119.5 212.5,119.5C 212.5,118.5 212.5,117.5 212.5,116.5C 213.5,116.5 214.5,116.5 215.5,116.5C 215.5,115.5 215.5,114.5 215.5,113.5C 216.978,113.762 218.311,113.429 219.5,112.5C 221.313,108.461 222.98,108.128 224.5,111.5C 225.48,108.914 225.813,106.247 225.5,103.5C 223.801,103.66 222.134,103.494 220.5,103C 222.607,101.736 223.607,99.9032 223.5,97.5C 226.247,97.8134 228.914,97.48 231.5,96.5C 228.064,95.808 224.73,94.808 221.5,93.5C 218.97,96.2095 217.47,95.5428 217,91.5C 214.192,88.5022 212.859,89.1688 213,93.5C 212.658,91.3808 211.825,91.0474 210.5,92.5C 210.531,84.1342 212.531,76.3008 216.5,69C 216.025,67.2367 215.358,65.57 214.5,64C 216.797,62.8403 216.464,61.8403 213.5,61C 223.833,60.3333 234.167,60.3333 244.5,61C 245.126,61.7504 245.626,62.5838 246,63.5C 249.368,62.1703 252.535,62.6703 255.5,65C 255.944,66.5333 256.277,68.0333 256.5,69.5C 258.128,68.4647 259.795,68.4647 261.5,69.5 Z"/></g>
<g><path style="opacity:1" fill="#e6b991" d="M 419.5,79.5 C 418.872,77.3384 417.539,75.6718 415.5,74.5C 404.341,73.3407 393.008,73.1741 381.5,74C 380.627,75.045 379.627,75.8783 378.5,76.5C 378.916,74.2475 380.249,72.7475 382.5,72C 393.167,71.3333 403.833,71.3333 414.5,72C 418.007,73.3296 419.673,75.8296 419.5,79.5 Z"/></g>
<g><path style="opacity:1" fill="#d78153" d="M 415.5,74.5 C 404.252,74.1793 393.085,74.5126 382,75.5C 381.428,77.8918 380.262,79.8918 378.5,81.5C 378.21,87.5403 376.71,93.2069 374,98.5C 372.164,104.672 371.164,111.005 371,117.5C 370.333,118.167 369.667,118.833 369,119.5C 367.43,124.335 366.263,129.335 365.5,134.5C 362.765,137.821 360.765,141.488 359.5,145.5C 360.097,141.381 361.097,137.381 362.5,133.5C 365.747,126.981 367.747,119.981 368.5,112.5C 370.555,103.163 372.721,93.83 375,84.5C 375.705,81.5243 376.871,78.8577 378.5,76.5C 379.627,75.8783 380.627,75.045 381.5,74C 393.008,73.1741 404.341,73.3407 415.5,74.5 Z"/></g>
<g><path style="opacity:1" fill="#76887c" d="M 106.5,71.5 C 106.5,72.5 106.5,73.5 106.5,74.5C 104.745,76.7612 103.578,79.4278 103,82.5C 101.27,95.0995 100.27,107.766 100,120.5C 98.961,126.903 97.7943,133.237 96.5,139.5C 98.2392,119.816 100.072,100.149 102,80.5C 102.765,77.0175 104.265,74.0175 106.5,71.5 Z"/></g>
<g><path style="opacity:1" fill="#2a432b" d="M 123.5,191.5 C 124.154,195.586 122.988,198.919 120,201.5C 119.501,205.152 119.335,208.818 119.5,212.5C 117.641,212.461 116.308,213.294 115.5,215C 116.31,221.765 116.977,228.599 117.5,235.5C 116.833,238.167 116.167,240.833 115.5,243.5C 116.164,247.476 116.497,251.476 116.5,255.5C 114.833,255.5 113.167,255.5 111.5,255.5C 111.5,266.167 111.5,276.833 111.5,287.5C 112.5,287.5 113.5,287.5 114.5,287.5C 113.833,298.167 113.167,308.833 112.5,319.5C 113.833,319.5 115.167,319.5 116.5,319.5C 115.492,323.692 113.992,327.692 112,331.5C 111.505,329.527 111.338,327.527 111.5,325.5C 106.174,324.26 100.841,324.26 95.5,325.5C 95.6611,328.528 94.9944,331.361 93.5,334C 95.2559,337.616 95.9225,341.449 95.5,345.5C 94.7784,345.918 94.2784,346.584 94,347.5C 93.6667,350.5 93.3333,353.5 93,356.5C 91.9887,357.337 90.8221,357.67 89.5,357.5C 90.1667,355.5 90.8333,353.5 91.5,351.5C 89.1667,351.5 86.8333,351.5 84.5,351.5C 85.1517,348.294 84.985,344.96 84,341.5C 83.6667,342.167 83.3333,342.833 83,343.5C 82.4888,341.122 81.8221,338.788 81,336.5C 80.3865,342.211 79.3865,347.544 78,352.5C 77.6667,358.833 77.3333,365.167 77,371.5C 74.1838,377.575 74.0171,383.575 76.5,389.5C 73.1032,388.742 71.7699,386.575 72.5,383C 73.4662,374.137 74.4662,365.304 75.5,356.5C 76.8316,350.672 77.9983,344.672 79,338.5C 81.0651,318.851 82.5651,299.184 83.5,279.5C 83.5,278.167 83.5,276.833 83.5,275.5C 87.0859,260.282 88.7526,244.615 88.5,228.5C 88.5,226.833 88.5,225.167 88.5,223.5C 91.8899,211.21 93.2232,198.544 92.5,185.5C 92.5,184.833 92.5,184.167 92.5,183.5C 93.8873,181.123 94.7206,178.457 95,175.5C 96.0172,165.19 96.5172,154.857 96.5,144.5C 96.5,142.833 96.5,141.167 96.5,139.5C 97.7943,133.237 98.961,126.903 100,120.5C 100.27,107.766 101.27,95.0995 103,82.5C 103.578,79.4278 104.745,76.7612 106.5,74.5C 107.473,73.2086 108.473,73.2086 109.5,74.5C 110.806,71.9343 112.639,70.9343 115,71.5C 115.923,70.2412 116.757,68.9079 117.5,67.5C 119.529,68.6293 119.863,68.1293 118.5,66C 120.282,65.1859 121.782,64.0192 123,62.5C 127.659,62.8572 132.493,63.5238 137.5,64.5C 136.277,66.4599 134.944,68.2932 133.5,70C 136.231,73.5281 135.898,76.8615 132.5,80C 136.07,81.3095 139.737,82.1428 143.5,82.5C 144.035,85.2385 143.035,87.0718 140.5,88C 142.18,88.3468 143.18,89.3468 143.5,91C 141.79,92.6111 139.957,94.1111 138,95.5C 137.503,98.146 137.336,100.813 137.5,103.5C 133.895,103.799 130.561,104.965 127.5,107C 131.178,108.461 134.845,109.794 138.5,111C 136.744,111.202 135.078,111.702 133.5,112.5C 134.468,115.273 135.801,117.773 137.5,120C 135.407,121.927 133.407,121.76 131.5,119.5C 130.167,121.167 128.833,122.833 127.5,124.5C 130.634,123.824 133.3,124.991 135.5,128C 133.284,138.124 131.451,137.957 130,127.5C 129.245,130.688 128.411,133.855 127.5,137C 128.5,138.667 129.5,140.333 130.5,142C 127.224,148.111 127.224,154.111 130.5,160C 129.631,161.869 128.465,162.369 127,161.5C 124.614,162.763 122.781,164.597 121.5,167C 122.793,167.49 124.127,167.657 125.5,167.5C 125.5,172.833 125.5,178.167 125.5,183.5C 126.552,183.351 127.552,183.517 128.5,184C 127.252,185.959 125.585,187.459 123.5,188.5C 122.347,189.687 122.347,190.687 123.5,191.5 Z"/></g>
<g><path style="opacity:1" fill="#e6642a" d="M 302.5,361.5 C 303.117,361.389 303.617,361.056 304,360.5C 304.333,358.167 304.667,355.833 305,353.5C 305.333,353.833 305.667,354.167 306,354.5C 306.499,350.848 306.665,347.182 306.5,343.5C 307.315,342.571 308.148,341.571 309,340.5C 315.542,313.088 322.709,286.088 330.5,259.5C 331.29,260.609 331.79,261.942 332,263.5C 332.718,264.451 333.551,264.617 334.5,264C 333.325,261.162 333.491,258.329 335,255.5C 335.98,253.941 336.813,252.274 337.5,250.5C 338.086,250.709 338.586,251.043 339,251.5C 340.136,248.904 340.969,246.237 341.5,243.5C 342.794,239.985 343.628,236.318 344,232.5C 346.014,230.817 347.68,228.817 349,226.5C 349.895,221.438 351.061,216.438 352.5,211.5C 349.863,210.236 349.863,208.069 352.5,205C 351.795,203.443 352.461,202.277 354.5,201.5C 357.534,189.727 360.034,178.06 362,166.5C 362.833,169.5 363.667,172.5 364.5,175.5C 364.833,174.5 365.167,173.5 365.5,172.5C 364.769,168.677 364.102,164.844 363.5,161C 364.891,155.597 365.724,150.097 366,144.5C 366.946,141.688 368.613,139.355 371,137.5C 372.239,133.561 373.905,129.895 376,126.5C 376.333,126.833 376.667,127.167 377,127.5C 377.631,124.607 378.464,121.774 379.5,119C 379.355,118.228 379.022,117.561 378.5,117C 380.095,113.34 381.429,109.507 382.5,105.5C 381.719,101.782 381.386,98.1151 381.5,94.5C 383.472,92.5847 384.472,90.2514 384.5,87.5C 388.482,87.6176 390.815,85.6176 391.5,81.5C 392.667,81.1667 393.833,80.8333 395,80.5C 398.895,82.1974 402.728,84.0307 406.5,86C 406.167,86.3333 405.833,86.6667 405.5,87C 406.308,87.3076 406.975,87.8076 407.5,88.5C 405.733,91.0368 404.233,93.7034 403,96.5C 402.709,105.58 401.709,114.58 400,123.5C 399.77,119.787 398.603,119.12 396.5,121.5C 395.663,119.156 394.329,117.156 392.5,115.5C 391.833,116.167 391.167,116.833 390.5,117.5C 389.877,119.966 389.043,122.299 388,124.5C 387.667,133.5 387.333,142.5 387,151.5C 386.667,150.833 386.333,150.167 386,149.5C 385.667,152.5 385.333,155.5 385,158.5C 384.667,158.833 384.333,159.167 384,159.5C 383.144,148.893 381.978,148.893 380.5,159.5C 379.571,158.311 379.238,156.978 379.5,155.5C 378.167,155.5 376.833,155.5 375.5,155.5C 375.192,157.924 375.526,160.257 376.5,162.5C 378.5,163.167 379.833,164.5 380.5,166.5C 379.02,170.07 377.687,173.737 376.5,177.5C 377.494,180.897 377.16,184.23 375.5,187.5C 376.167,190.167 376.833,192.833 377.5,195.5C 377.167,196.833 376.833,198.167 376.5,199.5C 375.325,198.145 374.325,198.312 373.5,200C 375.278,202.135 375.945,204.635 375.5,207.5C 376.5,207.5 377.5,207.5 378.5,207.5C 378.478,211.593 377.811,215.593 376.5,219.5C 376.551,221.1 376.884,222.6 377.5,224C 374.747,229.194 374.08,234.694 375.5,240.5C 374.653,241.845 373.487,242.845 372,243.5C 369.489,250.842 367.656,258.176 366.5,265.5C 364.833,265.5 363.167,265.5 361.5,265.5C 361.632,272.076 360.966,278.576 359.5,285C 359.667,286.833 359.833,288.667 360,290.5C 360.889,289.112 361.389,289.278 361.5,291C 359.586,293.248 358.086,295.748 357,298.5C 357.263,303.816 357.263,309.149 357,314.5C 356.667,313.5 356.333,312.5 356,311.5C 355.673,315.816 354.173,319.65 351.5,323C 353.389,326.836 354.055,331.003 353.5,335.5C 351.5,335.5 349.5,335.5 347.5,335.5C 347.829,341.537 347.496,347.537 346.5,353.5C 344.163,357.669 340.996,361.003 337,363.5C 336.667,363.167 336.333,362.833 336,362.5C 334.991,364.025 334.491,365.692 334.5,367.5C 332.712,367.785 331.045,367.452 329.5,366.5C 332.338,364.347 334.338,361.68 335.5,358.5C 336.5,358.5 337.5,358.5 338.5,358.5C 338.5,357.5 338.5,356.5 338.5,355.5C 337.5,355.5 336.5,355.5 335.5,355.5C 335.666,349.824 335.499,344.157 335,338.5C 332.833,339.333 331.333,340.833 330.5,343C 329.552,343.483 328.552,343.649 327.5,343.5C 327.201,345.973 326.201,348.14 324.5,350C 324.735,350.873 325.069,351.707 325.5,352.5C 320.705,357.192 316.038,361.859 311.5,366.5C 312.325,367.386 313.325,367.719 314.5,367.5C 314.806,371.04 313.473,372.374 310.5,371.5C 309.637,369.229 309.637,366.895 310.5,364.5C 307.715,364.933 305.381,366.266 303.5,368.5C 302.526,366.257 302.192,363.924 302.5,361.5 Z"/></g>
<g><path style="opacity:1" fill="#1e2518" d="M 229.5,194.5 C 229.5,193.5 229.5,192.5 229.5,191.5C 227.379,191.675 225.379,191.341 223.5,190.5C 222.872,179.742 223.538,169.242 225.5,159C 223.709,156.894 223.042,154.394 223.5,151.5C 218.125,151.828 212.792,151.495 207.5,150.5C 205.308,147.531 205.308,144.698 207.5,142C 207.347,138.262 207.18,134.429 207,130.5C 205.73,137.262 203.397,143.595 200,149.5C 199.333,147.5 199.333,145.5 200,143.5C 201.867,141.192 202.867,138.525 203,135.5C 203.654,136.696 204.154,136.696 204.5,135.5C 203.85,132.812 203.85,130.312 204.5,128C 205.448,127.517 206.448,127.351 207.5,127.5C 207.5,123.167 207.5,118.833 207.5,114.5C 208.5,114.5 209.5,114.5 210.5,114.5C 210.56,111.979 209.894,109.646 208.5,107.5C 209.624,103.379 209.957,99.3786 209.5,95.5C 210.404,94.791 210.737,93.791 210.5,92.5C 211.825,91.0474 212.658,91.3808 213,93.5C 212.859,89.1688 214.192,88.5022 217,91.5C 217.47,95.5428 218.97,96.2095 221.5,93.5C 224.73,94.808 228.064,95.808 231.5,96.5C 228.914,97.48 226.247,97.8134 223.5,97.5C 223.607,99.9032 222.607,101.736 220.5,103C 222.134,103.494 223.801,103.66 225.5,103.5C 225.813,106.247 225.48,108.914 224.5,111.5C 222.98,108.128 221.313,108.461 219.5,112.5C 218.311,113.429 216.978,113.762 215.5,113.5C 215.5,114.5 215.5,115.5 215.5,116.5C 214.5,116.5 213.5,116.5 212.5,116.5C 212.5,117.5 212.5,118.5 212.5,119.5C 213.5,119.5 214.5,119.5 215.5,119.5C 215.338,121.527 215.505,123.527 216,125.5C 216.833,124.5 217.667,123.5 218.5,122.5C 219.833,124.167 221.167,125.833 222.5,127.5C 223.167,124.833 223.833,122.167 224.5,119.5C 226.898,124.986 226.564,130.153 223.5,135C 225.433,135.251 227.266,135.751 229,136.5C 230.623,141.648 232.457,146.648 234.5,151.5C 236.167,151.5 237.833,151.5 239.5,151.5C 239.136,146.617 240.469,142.284 243.5,138.5C 244.984,140.896 246.317,143.396 247.5,146C 247.316,148.685 246.15,148.852 244,146.5C 243.34,153.539 242.506,160.539 241.5,167.5C 242.5,167.5 243.5,167.5 244.5,167.5C 244.5,170.167 244.5,172.833 244.5,175.5C 238.031,176.052 238.031,177.052 244.5,178.5C 244.286,180.144 244.62,181.644 245.5,183C 244.167,183.333 242.833,183.667 241.5,184C 242.701,184.903 243.535,186.069 244,187.5C 247.656,188.969 251.489,189.969 255.5,190.5C 254.167,191.167 252.833,191.833 251.5,192.5C 252.246,193.736 252.579,195.07 252.5,196.5C 253.5,196.5 254.5,196.5 255.5,196.5C 256.312,198.743 256.979,201.076 257.5,203.5C 257.167,204.833 256.833,206.167 256.5,207.5C 255.264,206.754 253.93,206.421 252.5,206.5C 252.5,205.5 252.5,204.5 252.5,203.5C 253.5,203.5 254.5,203.5 255.5,203.5C 255.5,202.5 255.5,201.5 255.5,200.5C 252.882,200.221 250.382,199.554 248,198.5C 246.989,199.337 245.822,199.67 244.5,199.5C 244.813,202.247 244.48,204.914 243.5,207.5C 242.505,202.208 242.172,196.875 242.5,191.5C 240.473,191.338 238.473,191.505 236.5,192C 235.667,194.167 234.167,195.667 232,196.5C 231.925,194.065 231.092,193.398 229.5,194.5 Z"/></g>
<g><path style="opacity:1" fill="#253e2a" d="M 195.5,143.5 C 194.178,143.33 193.011,143.663 192,144.5C 191.316,147.38 191.483,150.213 192.5,153C 192.056,154.762 191.556,154.595 191,152.5C 191.208,157.794 188.708,160.127 183.5,159.5C 183.357,166.986 179.691,169.986 172.5,168.5C 177.029,167.007 178.363,164.007 176.5,159.5C 175.534,161.396 175.201,163.396 175.5,165.5C 174.5,165.5 173.5,165.5 172.5,165.5C 172.799,163.396 172.466,161.396 171.5,159.5C 170.727,161.813 170.06,164.146 169.5,166.5C 168.236,166.64 167.069,166.64 166,166.5C 165.502,169.482 165.335,172.482 165.5,175.5C 166.978,175.238 168.311,175.571 169.5,176.5C 168.975,177.192 168.308,177.692 167.5,178C 169.363,179.418 169.863,181.251 169,183.5C 168.667,183.167 168.333,182.833 168,182.5C 167.667,185.167 167.333,187.833 167,190.5C 164.667,191.833 162.333,191.833 160,190.5C 157.519,191.149 157.186,192.149 159,193.5C 159.5,201.493 159.666,209.493 159.5,217.5C 148.833,217.833 148.833,218.167 159.5,218.5C 159.5,219.833 159.5,221.167 159.5,222.5C 156.833,222.5 154.167,222.5 151.5,222.5C 152.532,225.706 153.199,229.039 153.5,232.5C 152.34,238.808 151.34,245.141 150.5,251.5C 150.747,257.149 151.747,262.649 153.5,268C 151.712,274.365 151.046,280.865 151.5,287.5C 149.5,287.5 147.5,287.5 145.5,287.5C 144.361,290.004 143.694,292.67 143.5,295.5C 142.167,295.5 140.833,295.5 139.5,295.5C 139.813,292.753 139.48,290.086 138.5,287.5C 137.505,292.792 137.172,298.125 137.5,303.5C 139.5,303.5 141.5,303.5 143.5,303.5C 143.666,313.839 143.5,324.172 143,334.5C 141.301,335.406 139.467,335.739 137.5,335.5C 137.301,341.126 137.301,346.626 137.5,352C 137,352.5 136.5,353 136,353.5C 135.667,351.833 135.333,350.167 135,348.5C 132.667,347.5 131,345.833 130,343.5C 129.502,346.817 129.335,350.15 129.5,353.5C 123.04,354.097 116.874,353.43 111,351.5C 110.503,354.146 110.336,356.813 110.5,359.5C 115.492,359.579 115.492,360.579 110.5,362.5C 109.752,364.332 108.752,365.999 107.5,367.5C 105.747,364.995 104.247,362.329 103,359.5C 102.08,362.101 101.413,364.768 101,367.5C 100.004,362.676 98.337,362.009 96,365.5C 95.6667,365.167 95.3333,364.833 95,364.5C 90.7642,368.798 88.9308,367.798 89.5,361.5C 91.4918,361.672 93.1585,361.005 94.5,359.5C 95.4933,354.88 95.8266,350.214 95.5,345.5C 95.9225,341.449 95.2559,337.616 93.5,334C 94.9944,331.361 95.6611,328.528 95.5,325.5C 100.841,324.26 106.174,324.26 111.5,325.5C 111.338,327.527 111.505,329.527 112,331.5C 113.992,327.692 115.492,323.692 116.5,319.5C 115.167,319.5 113.833,319.5 112.5,319.5C 113.167,308.833 113.833,298.167 114.5,287.5C 113.5,287.5 112.5,287.5 111.5,287.5C 111.5,276.833 111.5,266.167 111.5,255.5C 113.167,255.5 114.833,255.5 116.5,255.5C 116.497,251.476 116.164,247.476 115.5,243.5C 116.167,240.833 116.833,238.167 117.5,235.5C 116.977,228.599 116.31,221.765 115.5,215C 116.308,213.294 117.641,212.461 119.5,212.5C 119.335,208.818 119.501,205.152 120,201.5C 122.988,198.919 124.154,195.586 123.5,191.5C 125.46,190.862 127.293,190.862 129,191.5C 129.637,189.697 130.803,188.364 132.5,187.5C 129.017,185.854 128.517,183.521 131,180.5C 131.893,179.289 132.726,179.289 133.5,180.5C 132.928,183.024 133.594,185.358 135.5,187.5C 135.471,189.029 134.804,190.196 133.5,191C 135.199,193.227 136.532,195.727 137.5,198.5C 135.74,201.212 135.073,204.212 135.5,207.5C 138.167,207.5 140.833,207.5 143.5,207.5C 143.927,204.212 143.26,201.212 141.5,198.5C 142.946,196.382 143.613,194.049 143.5,191.5C 144.978,191.762 146.311,191.429 147.5,190.5C 145.776,187.05 145.109,183.383 145.5,179.5C 146.833,179.5 148.167,179.5 149.5,179.5C 148.201,175.63 147.534,171.63 147.5,167.5C 145.801,167.34 144.134,167.506 142.5,168C 140.5,170.333 138.5,172.667 136.5,175C 133.453,175.58 133.119,175.247 135.5,174C 133.224,173.126 131.89,171.459 131.5,169C 133.23,167.005 134.563,164.838 135.5,162.5C 134.5,162.5 133.5,162.5 132.5,162.5C 131.659,157.983 132.992,154.317 136.5,151.5C 137.207,155.335 138.374,159.002 140,162.5C 140.374,161.584 140.874,160.75 141.5,160C 144.849,159.612 148.183,159.779 151.5,160.5C 151.5,159.167 151.5,157.833 151.5,156.5C 154.167,157.167 156.833,157.833 159.5,158.5C 159.5,156.5 159.5,154.5 159.5,152.5C 156.523,153.071 153.69,154.071 151,155.5C 150.667,155.167 150.333,154.833 150,154.5C 149.5,148.175 149.334,141.842 149.5,135.5C 151.903,135.607 153.736,134.607 155,132.5C 157.037,129.965 158.87,127.298 160.5,124.5C 161.646,125.145 162.646,125.978 163.5,127C 161.242,132.532 158.909,138.032 156.5,143.5C 155.167,143.5 153.833,143.5 152.5,143.5C 152.5,144.833 152.5,146.167 152.5,147.5C 154.5,147.5 156.5,147.5 158.5,147.5C 158.5,146.167 158.5,144.833 158.5,143.5C 164.167,143.5 169.833,143.5 175.5,143.5C 174.636,138.067 174.636,132.734 175.5,127.5C 178.119,127.768 180.619,127.435 183,126.5C 183.249,127.624 183.749,128.624 184.5,129.5C 186.167,128.667 187.833,127.833 189.5,127C 185.651,123.95 186.318,122.116 191.5,121.5C 191.363,117.886 191.363,114.553 191.5,111.5C 192.086,111.709 192.586,112.043 193,112.5C 193.854,117.239 195.02,121.906 196.5,126.5C 197.192,125.975 197.692,125.308 198,124.5C 198.132,130.956 197.299,137.289 195.5,143.5 Z"/></g>
<g><path style="opacity:1" fill="#e1642b" d="M 415.5,74.5 C 417.496,79.5868 417.996,84.9201 417,90.5C 413.005,102.665 410.838,114.998 410.5,127.5C 410.062,147.938 410.062,168.271 410.5,188.5C 410.304,190.286 409.471,191.619 408,192.5C 407.833,197.5 407.667,202.5 407.5,207.5C 408.842,218.174 409.509,229.007 409.5,240C 408.023,260.814 407.523,281.647 408,302.5C 408.667,303.167 409.333,303.833 410,304.5C 410.594,310.856 410.427,317.189 409.5,323.5C 408.192,314.355 406.525,305.189 404.5,296C 403.961,280.496 403.295,264.996 402.5,249.5C 401.808,248.975 401.308,248.308 401,247.5C 400.17,252.808 399.67,258.141 399.5,263.5C 398.5,263.5 397.5,263.5 396.5,263.5C 396.887,268.08 396.053,272.414 394,276.5C 393.5,285.494 393.334,294.494 393.5,303.5C 391.5,303.5 389.5,303.5 387.5,303.5C 388.167,308.833 388.833,314.167 389.5,319.5C 388.167,319.5 386.833,319.5 385.5,319.5C 385.5,330.167 385.5,340.833 385.5,351.5C 387.5,351.5 389.5,351.5 391.5,351.5C 391.5,355.167 391.5,358.833 391.5,362.5C 393.5,362.5 395.5,362.5 397.5,362.5C 397.859,364.766 397.192,366.599 395.5,368C 396.793,368.49 398.127,368.657 399.5,368.5C 399.5,370.167 399.5,371.833 399.5,373.5C 397.408,375.515 395.574,377.848 394,380.5C 393.506,382.134 393.34,383.801 393.5,385.5C 390.223,385.216 387.057,385.549 384,386.5C 380.869,385.794 377.702,385.127 374.5,384.5C 373.459,386.991 372.626,386.991 372,384.5C 371.481,385.516 370.647,386.182 369.5,386.5C 363.886,385.961 358.719,384.961 354,383.5C 352.981,384.687 351.814,385.687 350.5,386.5C 343.55,385.702 336.55,385.202 329.5,385C 328.584,384.626 327.75,384.126 327,383.5C 324.287,385.13 321.287,386.13 318,386.5C 314.546,383.794 312.713,380.127 312.5,375.5C 311.719,376.729 311.219,378.062 311,379.5C 309.989,378.663 308.822,378.33 307.5,378.5C 307.649,379.552 307.483,380.552 307,381.5C 305.644,380.62 304.144,380.286 302.5,380.5C 302.66,378.801 302.494,377.134 302,375.5C 300.689,378.086 299.189,380.586 297.5,383C 299.072,385.898 298.405,388.065 295.5,389.5C 296.709,382.123 298.042,374.79 299.5,367.5C 300.985,365.751 301.985,363.751 302.5,361.5C 302.192,363.924 302.526,366.257 303.5,368.5C 305.381,366.266 307.715,364.933 310.5,364.5C 309.637,366.895 309.637,369.229 310.5,371.5C 313.473,372.374 314.806,371.04 314.5,367.5C 313.325,367.719 312.325,367.386 311.5,366.5C 316.038,361.859 320.705,357.192 325.5,352.5C 325.069,351.707 324.735,350.873 324.5,350C 326.201,348.14 327.201,345.973 327.5,343.5C 328.552,343.649 329.552,343.483 330.5,343C 331.333,340.833 332.833,339.333 335,338.5C 335.499,344.157 335.666,349.824 335.5,355.5C 336.5,355.5 337.5,355.5 338.5,355.5C 338.5,356.5 338.5,357.5 338.5,358.5C 337.5,358.5 336.5,358.5 335.5,358.5C 334.338,361.68 332.338,364.347 329.5,366.5C 331.045,367.452 332.712,367.785 334.5,367.5C 334.491,365.692 334.991,364.025 336,362.5C 336.333,362.833 336.667,363.167 337,363.5C 340.996,361.003 344.163,357.669 346.5,353.5C 347.496,347.537 347.829,341.537 347.5,335.5C 349.5,335.5 351.5,335.5 353.5,335.5C 354.055,331.003 353.389,326.836 351.5,323C 354.173,319.65 355.673,315.816 356,311.5C 356.333,312.5 356.667,313.5 357,314.5C 357.263,309.149 357.263,303.816 357,298.5C 358.086,295.748 359.586,293.248 361.5,291C 361.389,289.278 360.889,289.112 360,290.5C 359.833,288.667 359.667,286.833 359.5,285C 360.966,278.576 361.632,272.076 361.5,265.5C 363.167,265.5 364.833,265.5 366.5,265.5C 367.656,258.176 369.489,250.842 372,243.5C 373.487,242.845 374.653,241.845 375.5,240.5C 374.08,234.694 374.747,229.194 377.5,224C 376.884,222.6 376.551,221.1 376.5,219.5C 377.811,215.593 378.478,211.593 378.5,207.5C 377.5,207.5 376.5,207.5 375.5,207.5C 375.945,204.635 375.278,202.135 373.5,200C 374.325,198.312 375.325,198.145 376.5,199.5C 376.833,198.167 377.167,196.833 377.5,195.5C 376.833,192.833 376.167,190.167 375.5,187.5C 377.16,184.23 377.494,180.897 376.5,177.5C 377.687,173.737 379.02,170.07 380.5,166.5C 379.833,164.5 378.5,163.167 376.5,162.5C 375.526,160.257 375.192,157.924 375.5,155.5C 376.833,155.5 378.167,155.5 379.5,155.5C 379.238,156.978 379.571,158.311 380.5,159.5C 381.978,148.893 383.144,148.893 384,159.5C 384.333,159.167 384.667,158.833 385,158.5C 385.333,155.5 385.667,152.5 386,149.5C 386.333,150.167 386.667,150.833 387,151.5C 387.333,142.5 387.667,133.5 388,124.5C 389.043,122.299 389.877,119.966 390.5,117.5C 391.167,116.833 391.833,116.167 392.5,115.5C 394.329,117.156 395.663,119.156 396.5,121.5C 398.603,119.12 399.77,119.787 400,123.5C 401.709,114.58 402.709,105.58 403,96.5C 404.233,93.7034 405.733,91.0368 407.5,88.5C 406.975,87.8076 406.308,87.3076 405.5,87C 405.833,86.6667 406.167,86.3333 406.5,86C 402.728,84.0307 398.895,82.1974 395,80.5C 393.833,80.8333 392.667,81.1667 391.5,81.5C 390.815,85.6176 388.482,87.6176 384.5,87.5C 384.472,90.2514 383.472,92.5847 381.5,94.5C 381.386,98.1151 381.719,101.782 382.5,105.5C 381.429,109.507 380.095,113.34 378.5,117C 379.022,117.561 379.355,118.228 379.5,119C 378.464,121.774 377.631,124.607 377,127.5C 376.667,127.167 376.333,126.833 376,126.5C 373.905,129.895 372.239,133.561 371,137.5C 368.613,139.355 366.946,141.688 366,144.5C 365.724,150.097 364.891,155.597 363.5,161C 364.102,164.844 364.769,168.677 365.5,172.5C 365.167,173.5 364.833,174.5 364.5,175.5C 363.667,172.5 362.833,169.5 362,166.5C 360.034,178.06 357.534,189.727 354.5,201.5C 352.461,202.277 351.795,203.443 352.5,205C 349.863,208.069 349.863,210.236 352.5,211.5C 351.061,216.438 349.895,221.438 349,226.5C 347.68,228.817 346.014,230.817 344,232.5C 343.628,236.318 342.794,239.985 341.5,243.5C 339.84,239.035 339.34,234.035 340,228.5C 341,228.167 342,227.833 343,227.5C 343.403,222.133 344.07,216.799 345,211.5C 346.147,212.458 347.147,212.125 348,210.5C 348.145,206.973 348.978,203.64 350.5,200.5C 349.808,198.665 350.142,196.832 351.5,195C 350.58,188.91 352.247,183.41 356.5,178.5C 356.291,177.914 355.957,177.414 355.5,177C 356.99,176.255 357.99,175.088 358.5,173.5C 358.959,169.2 360.292,165.2 362.5,161.5C 360.218,156.481 359.218,151.148 359.5,145.5C 360.765,141.488 362.765,137.821 365.5,134.5C 366.263,129.335 367.43,124.335 369,119.5C 369.667,118.833 370.333,118.167 371,117.5C 371.164,111.005 372.164,104.672 374,98.5C 376.71,93.2069 378.21,87.5403 378.5,81.5C 380.262,79.8918 381.428,77.8918 382,75.5C 393.085,74.5126 404.252,74.1793 415.5,74.5 Z"/></g>
<g><path style="opacity:1" fill="#e7b58d" d="M 368.5,112.5 C 367.747,119.981 365.747,126.981 362.5,133.5C 363.744,126.177 365.744,119.177 368.5,112.5 Z"/></g>
<g><path style="opacity:1" fill="#d36c28" d="M 415.5,74.5 C 417.539,75.6718 418.872,77.3384 419.5,79.5C 419.5,86.5 419.5,93.5 419.5,100.5C 419.354,141.505 419.688,182.505 420.5,223.5C 418.845,209.375 418.011,195.041 418,180.5C 415.799,185.486 414.132,185.486 413,180.5C 412.667,165.5 412.333,150.5 412,135.5C 411.817,132.635 411.317,129.969 410.5,127.5C 410.838,114.998 413.005,102.665 417,90.5C 417.996,84.9201 417.496,79.5868 415.5,74.5 Z"/></g>
<g><path style="opacity:1" fill="#192512" d="M 209.5,95.5 C 209.957,99.3786 209.624,103.379 208.5,107.5C 209.894,109.646 210.56,111.979 210.5,114.5C 209.5,114.5 208.5,114.5 207.5,114.5C 207.5,118.833 207.5,123.167 207.5,127.5C 206.448,127.351 205.448,127.517 204.5,128C 203.85,130.312 203.85,132.812 204.5,135.5C 204.154,136.696 203.654,136.696 203,135.5C 202.867,138.525 201.867,141.192 200,143.5C 199.333,145.5 199.333,147.5 200,149.5C 203.397,143.595 205.73,137.262 207,130.5C 207.18,134.429 207.347,138.262 207.5,142C 205.308,144.698 205.308,147.531 207.5,150.5C 212.792,151.495 218.125,151.828 223.5,151.5C 223.042,154.394 223.709,156.894 225.5,159C 223.538,169.242 222.872,179.742 223.5,190.5C 223.294,192.549 222.461,192.883 221,191.5C 220.98,196.77 219.98,201.77 218,206.5C 217.801,204.598 216.967,203.098 215.5,202C 216.308,201.692 216.975,201.192 217.5,200.5C 216.273,199.41 215.44,198.076 215,196.5C 214.667,197.5 214.333,198.5 214,199.5C 212.117,197.591 210.617,195.425 209.5,193C 210.167,192.667 210.833,192.333 211.5,192C 210.601,189.808 209.601,187.642 208.5,185.5C 208.709,184.914 209.043,184.414 209.5,184C 207.709,183.585 206.376,182.585 205.5,181C 205.854,179.374 205.854,177.541 205.5,175.5C 204.5,175.5 203.5,175.5 202.5,175.5C 201.841,172.545 201.508,169.545 201.5,166.5C 200.5,166.5 199.5,166.5 198.5,166.5C 198.5,166.167 198.5,165.833 198.5,165.5C 197.154,160.111 195.821,154.944 194.5,150C 194.944,148.238 195.444,148.405 196,150.5C 196.167,150 196.333,149.5 196.5,149C 195.67,147.535 195.504,146.035 196,144.5C 196.977,145.774 197.811,145.774 198.5,144.5C 200.117,135.75 202.117,127.083 204.5,118.5C 203.572,117.232 203.405,115.899 204,114.5C 204.556,116.595 205.056,116.762 205.5,115C 204.813,113.838 204.647,112.672 205,111.5C 205.333,111.833 205.667,112.167 206,112.5C 207.317,111.32 207.484,109.82 206.5,108C 206.815,103.518 207.815,99.3509 209.5,95.5 Z"/></g>
<g><path style="opacity:1" fill="#263f26" d="M 195.5,143.5 C 196.609,143.557 197.609,143.89 198.5,144.5C 197.811,145.774 196.977,145.774 196,144.5C 195.504,146.035 195.67,147.535 196.5,149C 196.333,149.5 196.167,150 196,150.5C 195.444,148.405 194.944,148.238 194.5,150C 195.821,154.944 197.154,160.111 198.5,165.5C 197.326,164.486 196.66,163.153 196.5,161.5C 196.179,159.952 195.179,159.285 193.5,159.5C 191.82,164.61 191.153,169.943 191.5,175.5C 191.768,177.099 191.434,178.432 190.5,179.5C 188.285,183.821 186.785,188.488 186,193.5C 184.295,200.754 183.128,208.087 182.5,215.5C 181.384,223.528 180.051,231.528 178.5,239.5C 177.25,239.577 176.417,240.244 176,241.5C 175.252,246.481 174.752,251.481 174.5,256.5C 173.237,264.612 171.571,272.612 169.5,280.5C 164.415,300.527 160.082,320.861 156.5,341.5C 155.5,341.5 154.5,341.5 153.5,341.5C 153.572,344.193 153.905,346.86 154.5,349.5C 153.201,353.594 151.534,357.427 149.5,361C 150.131,362.906 150.464,364.906 150.5,367C 149.386,373.499 148.386,379.999 147.5,386.5C 147.244,388.776 145.91,389.943 143.5,390C 120.993,392.096 98.6593,391.929 76.5,389.5C 74.0171,383.575 74.1838,377.575 77,371.5C 77.3333,365.167 77.6667,358.833 78,352.5C 79.3865,347.544 80.3865,342.211 81,336.5C 81.8221,338.788 82.4888,341.122 83,343.5C 83.3333,342.833 83.6667,342.167 84,341.5C 84.985,344.96 85.1517,348.294 84.5,351.5C 86.8333,351.5 89.1667,351.5 91.5,351.5C 90.8333,353.5 90.1667,355.5 89.5,357.5C 90.8221,357.67 91.9887,357.337 93,356.5C 93.3333,353.5 93.6667,350.5 94,347.5C 94.2784,346.584 94.7784,345.918 95.5,345.5C 95.8266,350.214 95.4933,354.88 94.5,359.5C 93.1585,361.005 91.4918,361.672 89.5,361.5C 88.9308,367.798 90.7642,368.798 95,364.5C 95.3333,364.833 95.6667,365.167 96,365.5C 98.337,362.009 100.004,362.676 101,367.5C 101.413,364.768 102.08,362.101 103,359.5C 104.247,362.329 105.747,364.995 107.5,367.5C 108.752,365.999 109.752,364.332 110.5,362.5C 115.492,360.579 115.492,359.579 110.5,359.5C 110.336,356.813 110.503,354.146 111,351.5C 116.874,353.43 123.04,354.097 129.5,353.5C 129.335,350.15 129.502,346.817 130,343.5C 131,345.833 132.667,347.5 135,348.5C 135.333,350.167 135.667,351.833 136,353.5C 136.5,353 137,352.5 137.5,352C 137.301,346.626 137.301,341.126 137.5,335.5C 139.467,335.739 141.301,335.406 143,334.5C 143.5,324.172 143.666,313.839 143.5,303.5C 141.5,303.5 139.5,303.5 137.5,303.5C 137.172,298.125 137.505,292.792 138.5,287.5C 139.48,290.086 139.813,292.753 139.5,295.5C 140.833,295.5 142.167,295.5 143.5,295.5C 143.694,292.67 144.361,290.004 145.5,287.5C 147.5,287.5 149.5,287.5 151.5,287.5C 151.046,280.865 151.712,274.365 153.5,268C 151.747,262.649 150.747,257.149 150.5,251.5C 151.34,245.141 152.34,238.808 153.5,232.5C 153.199,229.039 152.532,225.706 151.5,222.5C 154.167,222.5 156.833,222.5 159.5,222.5C 159.5,221.167 159.5,219.833 159.5,218.5C 148.833,218.167 148.833,217.833 159.5,217.5C 159.666,209.493 159.5,201.493 159,193.5C 157.186,192.149 157.519,191.149 160,190.5C 162.333,191.833 164.667,191.833 167,190.5C 167.333,187.833 167.667,185.167 168,182.5C 168.333,182.833 168.667,183.167 169,183.5C 169.863,181.251 169.363,179.418 167.5,178C 168.308,177.692 168.975,177.192 169.5,176.5C 168.311,175.571 166.978,175.238 165.5,175.5C 165.335,172.482 165.502,169.482 166,166.5C 167.069,166.64 168.236,166.64 169.5,166.5C 170.06,164.146 170.727,161.813 171.5,159.5C 172.466,161.396 172.799,163.396 172.5,165.5C 173.5,165.5 174.5,165.5 175.5,165.5C 175.201,163.396 175.534,161.396 176.5,159.5C 178.363,164.007 177.029,167.007 172.5,168.5C 179.691,169.986 183.357,166.986 183.5,159.5C 188.708,160.127 191.208,157.794 191,152.5C 191.556,154.595 192.056,154.762 192.5,153C 191.483,150.213 191.316,147.38 192,144.5C 193.011,143.663 194.178,143.33 195.5,143.5 Z"/></g>
<g><path style="opacity:1" fill="#5f6a59" d="M 196.5,161.5 C 195.414,161.62 194.747,162.287 194.5,163.5C 193.916,167.732 192.916,171.732 191.5,175.5C 191.153,169.943 191.82,164.61 193.5,159.5C 195.179,159.285 196.179,159.952 196.5,161.5 Z"/></g>
<g><path style="opacity:1" fill="#586a5b" d="M 96.5,144.5 C 96.5172,154.857 96.0172,165.19 95,175.5C 94.7206,178.457 93.8873,181.123 92.5,183.5C 93.385,170.313 94.7184,157.313 96.5,144.5 Z"/></g>
<g><path style="opacity:1" fill="#e3a67e" d="M 419.5,100.5 C 420.4,141.333 421.067,182.333 421.5,223.5C 421.167,223.5 420.833,223.5 420.5,223.5C 419.688,182.505 419.354,141.505 419.5,100.5 Z"/></g>
<g><path style="opacity:1" fill="#e5b295" d="M 353.5,167.5 C 352.779,172.17 351.946,176.837 351,181.5C 350.392,183.066 349.558,184.4 348.5,185.5C 349.395,179.165 351.062,173.165 353.5,167.5 Z"/></g>
<g><path style="opacity:1" fill="#202c15" d="M 198.5,166.5 C 199.5,166.5 200.5,166.5 201.5,166.5C 201.508,169.545 201.841,172.545 202.5,175.5C 203.5,175.5 204.5,175.5 205.5,175.5C 205.854,177.541 205.854,179.374 205.5,181C 206.376,182.585 207.709,183.585 209.5,184C 209.043,184.414 208.709,184.914 208.5,185.5C 209.601,187.642 210.601,189.808 211.5,192C 210.833,192.333 210.167,192.667 209.5,193C 210.617,195.425 212.117,197.591 214,199.5C 214.333,198.5 214.667,197.5 215,196.5C 215.44,198.076 216.273,199.41 217.5,200.5C 216.975,201.192 216.308,201.692 215.5,202C 216.967,203.098 217.801,204.598 218,206.5C 219.98,201.77 220.98,196.77 221,191.5C 222.461,192.883 223.294,192.549 223.5,190.5C 225.379,191.341 227.379,191.675 229.5,191.5C 229.5,192.5 229.5,193.5 229.5,194.5C 228.067,195.833 226.733,197.333 225.5,199C 226.649,200.744 227.983,200.911 229.5,199.5C 230.521,201.619 232.021,203.286 234,204.5C 234.483,205.448 234.649,206.448 234.5,207.5C 233.5,207.5 232.5,207.5 231.5,207.5C 231.5,208.5 231.5,209.5 231.5,210.5C 234.167,210.5 236.833,210.5 239.5,210.5C 238.925,222.134 236.758,233.467 233,244.5C 232.692,243.692 232.192,243.025 231.5,242.5C 231.002,243.603 230.669,244.603 230.5,245.5C 229.594,243.614 228.594,241.78 227.5,240C 228.744,239.544 229.577,240.044 230,241.5C 230.374,240.584 230.874,239.75 231.5,239C 227.874,237.948 226.041,235.448 226,231.5C 223.86,230.272 222.193,228.605 221,226.5C 221.764,232.118 222.597,237.784 223.5,243.5C 215.338,217.879 207.005,192.212 198.5,166.5 Z"/></g>
<g><path style="opacity:1" fill="#272c1e" d="M 291.5,147.5 C 304.667,180.526 317.334,213.859 329.5,247.5C 327.992,261.534 324.658,274.867 319.5,287.5C 320.123,282.596 321.123,277.763 322.5,273C 321.744,269.875 321.411,266.709 321.5,263.5C 320.448,263.649 319.448,263.483 318.5,263C 319.602,260.599 319.769,258.099 319,255.5C 318.333,257.5 317.667,259.5 317,261.5C 316.219,260.271 315.719,258.938 315.5,257.5C 317.607,255.513 317.774,253.513 316,251.5C 313.783,257.482 310.949,263.149 307.5,268.5C 306.808,267.975 306.308,267.308 306,266.5C 305.501,262.848 305.335,259.182 305.5,255.5C 307.5,255.5 309.5,255.5 311.5,255.5C 313.72,250.475 314.72,245.142 314.5,239.5C 313.5,239.5 312.5,239.5 311.5,239.5C 311.187,236.753 311.52,234.086 312.5,231.5C 314.951,236.543 315.951,241.877 315.5,247.5C 316.5,247.5 317.5,247.5 318.5,247.5C 318.119,245.058 318.786,244.391 320.5,245.5C 320.833,244.5 321.167,243.5 321.5,242.5C 318.767,238.539 316.767,234.206 315.5,229.5C 316.428,228.232 316.595,226.899 316,225.5C 314.869,224.396 314.035,224.729 313.5,226.5C 314.61,228.566 313.944,229.399 311.5,229C 312.593,225.848 313.259,222.848 313.5,220C 311.934,218.216 310.601,216.216 309.5,214C 310.102,212.437 310.935,212.604 312,214.5C 312.717,210.692 311.383,207.358 308,204.5C 307.257,202.559 307.424,200.726 308.5,199C 305.038,197.704 303.372,195.204 303.5,191.5C 302.448,191.649 301.448,191.483 300.5,191C 301.726,188.399 301.06,187.565 298.5,188.5C 297.359,186.579 297.192,184.579 298,182.5C 298.654,183.696 299.154,183.696 299.5,182.5C 298.092,179.701 296.759,176.868 295.5,174C 295.82,172.347 296.82,171.347 298.5,171C 297.333,170.5 296.5,169.667 296,168.5C 295.586,168.957 295.086,169.291 294.5,169.5C 293.757,168.092 292.923,166.759 292,165.5C 292.612,159.487 292.445,153.487 291.5,147.5 Z"/></g>
<g><path style="opacity:1" fill="#e1ad8a" d="M 348.5,185.5 C 348.337,193.856 346.337,201.523 342.5,208.5C 343.756,200.518 345.756,192.851 348.5,185.5 Z"/></g>
<g><path style="opacity:1" fill="#536351" d="M 190.5,179.5 C 188.748,191.828 186.081,203.828 182.5,215.5C 183.128,208.087 184.295,200.754 186,193.5C 186.785,188.488 188.285,183.821 190.5,179.5 Z"/></g>
<g><path style="opacity:1" fill="#637367" d="M 92.5,185.5 C 93.2232,198.544 91.8899,211.21 88.5,223.5C 89.4606,210.65 90.794,197.984 92.5,185.5 Z"/></g>
<g><path style="opacity:1" fill="#1f2517" d="M 319.5,287.5 C 317.228,301.164 313.894,314.497 309.5,327.5C 306.796,335.289 304.463,343.289 302.5,351.5C 300.928,356.552 298.594,361.219 295.5,365.5C 295.5,364.5 295.5,363.5 295.5,362.5C 293.027,362.736 291.36,364.069 290.5,366.5C 289.579,361.499 289.412,356.499 290,351.5C 289,350.167 288,350.167 287,351.5C 286.949,354.277 286.782,356.943 286.5,359.5C 285.52,356.914 285.187,354.247 285.5,351.5C 281.486,351.666 277.486,351.499 273.5,351C 273.935,348.602 273.269,346.269 271.5,344C 274.379,343.043 276.879,343.543 279,345.5C 279.499,339.509 279.666,333.509 279.5,327.5C 280.5,327.5 281.5,327.5 282.5,327.5C 282.5,322.167 282.5,316.833 282.5,311.5C 280.396,311.201 278.396,311.534 276.5,312.5C 277.923,314.843 278.923,317.343 279.5,320C 277.779,325.02 277.113,330.186 277.5,335.5C 275.5,335.5 273.5,335.5 271.5,335.5C 271.5,331.833 271.5,328.167 271.5,324.5C 271.904,323.244 272.571,322.077 273.5,321C 272.978,320.05 272.311,319.216 271.5,318.5C 272.5,316.5 273.5,314.5 274.5,312.5C 273.975,311.808 273.308,311.308 272.5,311C 273.554,308.618 274.221,306.118 274.5,303.5C 273.5,303.5 272.5,303.5 271.5,303.5C 272.76,300.989 274.427,298.656 276.5,296.5C 275.675,295.614 274.675,295.281 273.5,295.5C 273.834,289.006 273.001,282.673 271,276.5C 268.667,275.5 267,273.833 266,271.5C 265.17,266.192 264.67,260.859 264.5,255.5C 266.942,255.646 267.609,254.813 266.5,253C 262.94,251.763 259.273,251.263 255.5,251.5C 255.238,250.022 255.571,248.689 256.5,247.5C 259.857,249.621 263.19,249.787 266.5,248C 265.299,247.097 264.465,245.931 264,244.5C 263.751,245.624 263.251,246.624 262.5,247.5C 262.167,247.333 261.833,247.167 261.5,247C 260.219,244.597 258.386,242.763 256,241.5C 255.812,239.939 256.645,239.272 258.5,239.5C 258.5,236.833 258.5,234.167 258.5,231.5C 259.5,231.5 260.5,231.5 261.5,231.5C 261.282,226.941 262.949,225.774 266.5,228C 267.925,229.714 267.592,231.047 265.5,232C 268.41,236.441 272.41,238.941 277.5,239.5C 277.172,234.125 277.505,228.792 278.5,223.5C 279.642,225.803 280.975,227.97 282.5,230C 281.963,231.792 281.63,233.625 281.5,235.5C 282.593,238.769 283.259,242.103 283.5,245.5C 288.833,246.167 288.833,246.833 283.5,247.5C 283.34,249.199 283.506,250.866 284,252.5C 287.164,249.855 288.331,250.855 287.5,255.5C 289.5,255.5 291.5,255.5 293.5,255.5C 292.493,263.846 294.16,271.513 298.5,278.5C 297.675,279.386 296.675,279.719 295.5,279.5C 295.657,278.127 295.49,276.793 295,275.5C 292.864,280.613 293.031,285.613 295.5,290.5C 297.833,290.5 300.167,290.5 302.5,290.5C 302.84,294.548 303.506,298.548 304.5,302.5C 305.458,296.667 305.458,291 304.5,285.5C 305.167,285.167 305.833,284.833 306.5,284.5C 308.851,286.107 309.518,288.107 308.5,290.5C 309.244,293.443 309.744,296.443 310,299.5C 310.336,295.961 312.169,293.794 315.5,293C 314.5,292.667 313.5,292.333 312.5,292C 313.833,290.333 313.833,288.667 312.5,287C 314.076,286.612 315.409,287.112 316.5,288.5C 315.54,289.812 315.706,291.146 317,292.5C 317.374,290.509 318.207,288.842 319.5,287.5 Z"/></g>
<g><path style="opacity:1" fill="#dd956d" d="M 342.5,209.5 C 341.871,220.372 338.871,230.372 333.5,239.5C 336,229.216 339,219.216 342.5,209.5 Z"/></g>
<g><path style="opacity:1" fill="#db6f32" d="M 359.5,145.5 C 359.218,151.148 360.218,156.481 362.5,161.5C 360.292,165.2 358.959,169.2 358.5,173.5C 357.99,175.088 356.99,176.255 355.5,177C 355.957,177.414 356.291,177.914 356.5,178.5C 352.247,183.41 350.58,188.91 351.5,195C 350.142,196.832 349.808,198.665 350.5,200.5C 348.978,203.64 348.145,206.973 348,210.5C 347.147,212.125 346.147,212.458 345,211.5C 344.07,216.799 343.403,222.133 343,227.5C 342,227.833 341,228.167 340,228.5C 339.34,234.035 339.84,239.035 341.5,243.5C 340.969,246.237 340.136,248.904 339,251.5C 338.586,251.043 338.086,250.709 337.5,250.5C 336.813,252.274 335.98,253.941 335,255.5C 333.491,258.329 333.325,261.162 334.5,264C 333.551,264.617 332.718,264.451 332,263.5C 331.79,261.942 331.29,260.609 330.5,259.5C 332.763,253.036 333.763,246.37 333.5,239.5C 338.871,230.372 341.871,220.372 342.5,209.5C 342.5,209.167 342.5,208.833 342.5,208.5C 346.337,201.523 348.337,193.856 348.5,185.5C 349.558,184.4 350.392,183.066 351,181.5C 351.946,176.837 352.779,172.17 353.5,167.5C 354.627,159.831 356.627,152.497 359.5,145.5 Z"/></g>
<g><path style="opacity:1" fill="#dd6726" d="M 410.5,127.5 C 411.317,129.969 411.817,132.635 412,135.5C 412.333,150.5 412.667,165.5 413,180.5C 414.132,185.486 415.799,185.486 418,180.5C 418.011,195.041 418.845,209.375 420.5,223.5C 420.833,223.5 421.167,223.5 421.5,223.5C 421.5,228.833 421.5,234.167 421.5,239.5C 421.431,289.176 421.598,338.843 422,388.5C 421.747,391.79 420.747,394.79 419,397.5C 414.859,401.827 410.359,405.494 405.5,408.5C 367.857,409.475 330.191,409.809 292.5,409.5C 290.708,409.634 289.042,409.301 287.5,408.5C 291.516,394.694 295.516,381.027 299.5,367.5C 298.042,374.79 296.709,382.123 295.5,389.5C 294.234,391.694 294.234,394.028 295.5,396.5C 294.833,397.167 294.167,397.833 293.5,398.5C 293.846,399.696 294.346,399.696 295,398.5C 295.483,399.448 295.649,400.448 295.5,401.5C 294.5,401.5 293.5,401.5 292.5,401.5C 292.5,403.5 292.5,405.5 292.5,407.5C 300.179,408.086 300.846,407.086 294.5,404.5C 296,404.167 297.5,403.833 299,403.5C 304.32,404.276 309.654,404.942 315,405.5C 321.868,404.562 328.201,404.562 334,405.5C 338.749,404.695 343.582,404.195 348.5,404C 344.5,403.667 340.5,403.333 336.5,403C 341.167,402.333 345.833,402.333 350.5,403C 351.579,403.956 352.745,404.789 354,405.5C 359.817,404.893 366.15,404.893 373,405.5C 380.139,404.448 387.305,403.614 394.5,403C 394.833,402.667 395.167,402.333 395.5,402C 393.5,401.667 391.5,401.333 389.5,401C 394.569,399.933 399.569,398.599 404.5,397C 405.934,394.253 408.267,392.753 411.5,392.5C 412.311,391.784 412.978,390.95 413.5,390C 412.718,387.284 411.384,384.95 409.5,383C 410.517,381.951 410.684,380.784 410,379.5C 409.444,381.595 408.944,381.762 408.5,380C 409.562,376.211 409.729,372.377 409,368.5C 406.959,367.577 404.792,367.244 402.5,367.5C 401.325,367.719 400.325,367.386 399.5,366.5C 401.67,364.914 404.004,363.58 406.5,362.5C 409.271,359.323 409.938,355.823 408.5,352C 409.016,345.274 410.016,338.607 411.5,332C 410.105,329.321 409.439,326.488 409.5,323.5C 410.427,317.189 410.594,310.856 410,304.5C 409.333,303.833 408.667,303.167 408,302.5C 407.523,281.647 408.023,260.814 409.5,240C 409.509,229.007 408.842,218.174 407.5,207.5C 407.667,202.5 407.833,197.5 408,192.5C 409.471,191.619 410.304,190.286 410.5,188.5C 410.062,168.271 410.062,147.938 410.5,127.5 Z"/></g>
<g><path style="opacity:1" fill="#5d6c5b" d="M 178.5,239.5 C 177.897,245.468 176.564,251.134 174.5,256.5C 174.752,251.481 175.252,246.481 176,241.5C 176.417,240.244 177.25,239.577 178.5,239.5 Z"/></g>
<g><path style="opacity:1" fill="#e6642a" d="M 409.5,323.5 C 409.439,326.488 410.105,329.321 411.5,332C 410.016,338.607 409.016,345.274 408.5,352C 409.938,355.823 409.271,359.323 406.5,362.5C 404.004,363.58 401.67,364.914 399.5,366.5C 400.325,367.386 401.325,367.719 402.5,367.5C 401.87,369.75 400.87,371.75 399.5,373.5C 399.5,371.833 399.5,370.167 399.5,368.5C 398.127,368.657 396.793,368.49 395.5,368C 397.192,366.599 397.859,364.766 397.5,362.5C 395.5,362.5 393.5,362.5 391.5,362.5C 391.5,358.833 391.5,355.167 391.5,351.5C 389.5,351.5 387.5,351.5 385.5,351.5C 385.5,340.833 385.5,330.167 385.5,319.5C 386.833,319.5 388.167,319.5 389.5,319.5C 388.833,314.167 388.167,308.833 387.5,303.5C 389.5,303.5 391.5,303.5 393.5,303.5C 393.334,294.494 393.5,285.494 394,276.5C 396.053,272.414 396.887,268.08 396.5,263.5C 397.5,263.5 398.5,263.5 399.5,263.5C 399.67,258.141 400.17,252.808 401,247.5C 401.308,248.308 401.808,248.975 402.5,249.5C 403.295,264.996 403.961,280.496 404.5,296C 406.525,305.189 408.192,314.355 409.5,323.5 Z"/></g>
<g><path style="opacity:1" fill="#66756a" d="M 88.5,228.5 C 88.7526,244.615 87.0859,260.282 83.5,275.5C 84.9107,259.662 86.5773,243.995 88.5,228.5 Z"/></g>
<g><path style="opacity:1" fill="#b55e31" d="M 333.5,239.5 C 333.763,246.37 332.763,253.036 330.5,259.5C 322.709,286.088 315.542,313.088 309,340.5C 308.148,341.571 307.315,342.571 306.5,343.5C 307.755,338.224 308.755,332.891 309.5,327.5C 313.894,314.497 317.228,301.164 319.5,287.5C 324.658,274.867 327.992,261.534 329.5,247.5C 331.128,245.012 332.462,242.345 333.5,239.5 Z"/></g>
<g><path style="opacity:1" fill="#627466" d="M 83.5,279.5 C 82.5651,299.184 81.0651,318.851 79,338.5C 77.9983,344.672 76.8316,350.672 75.5,356.5C 77.6973,330.644 80.3639,304.977 83.5,279.5 Z"/></g>
<g><path style="opacity:1" fill="#613e1c" d="M 309.5,327.5 C 308.755,332.891 307.755,338.224 306.5,343.5C 304.975,346.079 303.641,348.746 302.5,351.5C 304.463,343.289 306.796,335.289 309.5,327.5 Z"/></g>
<g><path style="opacity:1" fill="#eca781" d="M 421.5,239.5 C 422.668,289.999 423.168,340.666 423,391.5C 420.328,398.504 415.828,404.004 409.5,408C 408.207,408.49 406.873,408.657 405.5,408.5C 410.359,405.494 414.859,401.827 419,397.5C 420.747,394.79 421.747,391.79 422,388.5C 421.598,338.843 421.431,289.176 421.5,239.5 Z"/></g>
<g><path style="opacity:1" fill="#505d4c" d="M 169.5,280.5 C 163.078,316.165 155.745,351.498 147.5,386.5C 148.386,379.999 149.386,373.499 150.5,367C 150.464,364.906 150.131,362.906 149.5,361C 151.534,357.427 153.201,353.594 154.5,349.5C 153.905,346.86 153.572,344.193 153.5,341.5C 154.5,341.5 155.5,341.5 156.5,341.5C 160.082,320.861 164.415,300.527 169.5,280.5 Z"/></g>
<g><path style="opacity:1" fill="#1e2812" d="M 271.5,324.5 C 271.5,328.167 271.5,331.833 271.5,335.5C 273.5,335.5 275.5,335.5 277.5,335.5C 277.113,330.186 277.779,325.02 279.5,320C 278.923,317.343 277.923,314.843 276.5,312.5C 278.396,311.534 280.396,311.201 282.5,311.5C 282.5,316.833 282.5,322.167 282.5,327.5C 281.5,327.5 280.5,327.5 279.5,327.5C 279.666,333.509 279.499,339.509 279,345.5C 276.879,343.543 274.379,343.043 271.5,344C 273.269,346.269 273.935,348.602 273.5,351C 277.486,351.499 281.486,351.666 285.5,351.5C 285.187,354.247 285.52,356.914 286.5,359.5C 286.782,356.943 286.949,354.277 287,351.5C 288,350.167 289,350.167 290,351.5C 289.412,356.499 289.579,361.499 290.5,366.5C 291.36,364.069 293.027,362.736 295.5,362.5C 295.5,363.5 295.5,364.5 295.5,365.5C 294.106,368.933 291.772,371.6 288.5,373.5C 286.035,376.703 285.869,380.036 288,383.5C 288.353,381.926 289.02,380.259 290,378.5C 290.667,379.833 291.333,379.833 292,378.5C 292.167,379.333 292.333,380.167 292.5,381C 290.914,387.509 289.414,394.009 288,400.5C 287.261,402.221 286.427,403.887 285.5,405.5C 284.5,405 283.5,404.5 282.5,404C 282.833,403 283.167,402 283.5,401C 281.03,401.8 278.697,401.3 276.5,399.5C 274.726,395.611 272.726,391.945 270.5,388.5C 265.457,374.369 260.79,360.036 256.5,345.5C 255.717,341.854 255.55,338.188 256,334.5C 257.101,336.394 258.434,337.061 260,336.5C 262.496,340.245 263.663,339.578 263.5,334.5C 260.233,334.576 258.899,333.243 259.5,330.5C 257.803,329.636 256.637,328.303 256,326.5C 255.667,326.833 255.333,327.167 255,327.5C 254.239,324.947 253.406,322.447 252.5,320C 252.957,319.586 253.291,319.086 253.5,318.5C 252.833,318.167 252.167,317.833 251.5,317.5C 252.48,316.019 253.647,314.685 255,313.5C 255.684,314.784 255.517,315.951 254.5,317C 255.354,318.022 256.354,318.855 257.5,319.5C 258.856,314.56 258.523,309.727 256.5,305C 257.022,304.05 257.689,303.216 258.5,302.5C 257.462,299.212 258.128,298.879 260.5,301.5C 261.496,307.463 261.829,313.463 261.5,319.5C 263.857,319.337 266.19,319.503 268.5,320C 269.053,321.878 270.053,323.378 271.5,324.5 Z"/></g>
<g><path style="opacity:1" fill="#bc6135" d="M 306.5,343.5 C 306.665,347.182 306.499,350.848 306,354.5C 305.667,354.167 305.333,353.833 305,353.5C 304.667,355.833 304.333,358.167 304,360.5C 303.617,361.056 303.117,361.389 302.5,361.5C 301.985,363.751 300.985,365.751 299.5,367.5C 300.523,362.139 301.523,356.806 302.5,351.5C 303.641,348.746 304.975,346.079 306.5,343.5 Z"/></g>
<g><path style="opacity:1" fill="#322e1b" d="M 302.5,351.5 C 301.523,356.806 300.523,362.139 299.5,367.5C 295.516,381.027 291.516,394.694 287.5,408.5C 282.736,407.861 278.903,405.528 276,401.5C 273.62,397.406 271.787,393.073 270.5,388.5C 272.726,391.945 274.726,395.611 276.5,399.5C 278.697,401.3 281.03,401.8 283.5,401C 283.167,402 282.833,403 282.5,404C 283.5,404.5 284.5,405 285.5,405.5C 286.427,403.887 287.261,402.221 288,400.5C 289.414,394.009 290.914,387.509 292.5,381C 292.333,380.167 292.167,379.333 292,378.5C 291.333,379.833 290.667,379.833 290,378.5C 289.02,380.259 288.353,381.926 288,383.5C 285.869,380.036 286.035,376.703 288.5,373.5C 291.772,371.6 294.106,368.933 295.5,365.5C 298.594,361.219 300.928,356.552 302.5,351.5 Z"/></g>
<g><path style="opacity:1" fill="#e15d21" d="M 402.5,367.5 C 404.792,367.244 406.959,367.577 409,368.5C 409.729,372.377 409.562,376.211 408.5,380C 408.944,381.762 409.444,381.595 410,379.5C 410.684,380.784 410.517,381.951 409.5,383C 411.384,384.95 412.718,387.284 413.5,390C 412.978,390.95 412.311,391.784 411.5,392.5C 408.267,392.753 405.934,394.253 404.5,397C 399.569,398.599 394.569,399.933 389.5,401C 391.5,401.333 393.5,401.667 395.5,402C 395.167,402.333 394.833,402.667 394.5,403C 387.305,403.614 380.139,404.448 373,405.5C 366.15,404.893 359.817,404.893 354,405.5C 352.745,404.789 351.579,403.956 350.5,403C 345.833,402.333 341.167,402.333 336.5,403C 340.5,403.333 344.5,403.667 348.5,404C 343.582,404.195 338.749,404.695 334,405.5C 328.201,404.562 321.868,404.562 315,405.5C 309.654,404.942 304.32,404.276 299,403.5C 297.5,403.833 296,404.167 294.5,404.5C 300.846,407.086 300.179,408.086 292.5,407.5C 292.5,405.5 292.5,403.5 292.5,401.5C 293.5,401.5 294.5,401.5 295.5,401.5C 295.649,400.448 295.483,399.448 295,398.5C 294.346,399.696 293.846,399.696 293.5,398.5C 294.167,397.833 294.833,397.167 295.5,396.5C 294.234,394.028 294.234,391.694 295.5,389.5C 298.405,388.065 299.072,385.898 297.5,383C 299.189,380.586 300.689,378.086 302,375.5C 302.494,377.134 302.66,378.801 302.5,380.5C 304.144,380.286 305.644,380.62 307,381.5C 307.483,380.552 307.649,379.552 307.5,378.5C 308.822,378.33 309.989,378.663 311,379.5C 311.219,378.062 311.719,376.729 312.5,375.5C 312.713,380.127 314.546,383.794 318,386.5C 321.287,386.13 324.287,385.13 327,383.5C 327.75,384.126 328.584,384.626 329.5,385C 336.55,385.202 343.55,385.702 350.5,386.5C 351.814,385.687 352.981,384.687 354,383.5C 358.719,384.961 363.886,385.961 369.5,386.5C 370.647,386.182 371.481,385.516 372,384.5C 372.626,386.991 373.459,386.991 374.5,384.5C 377.702,385.127 380.869,385.794 384,386.5C 387.057,385.549 390.223,385.216 393.5,385.5C 393.34,383.801 393.506,382.134 394,380.5C 395.574,377.848 397.408,375.515 399.5,373.5C 400.87,371.75 401.87,369.75 402.5,367.5 Z"/></g>
<g><path style="opacity:1" fill="#ebbb9c" d="M 405.5,408.5 C 404.737,409.268 403.737,409.768 402.5,410C 365.664,410.831 328.998,410.664 292.5,409.5C 330.191,409.809 367.857,409.475 405.5,408.5 Z"/></g>
</svg>
