<?xml version="1.0" encoding="UTF-8"?>
<svg version="1.1" xmlns="http://www.w3.org/2000/svg" width="500" height="500">
<path d="M0 0 C1.18722656 -0.00515625 2.37445313 -0.0103125 3.59765625 -0.015625 C4.83386719 -0.00015625 6.07007813 0.0153125 7.34375 0.03125 C9.19806641 0.00804687 9.19806641 0.00804687 11.08984375 -0.015625 C12.87068359 -0.00789062 12.87068359 -0.00789062 14.6875 0 C15.77224609 0.00451172 16.85699219 0.00902344 17.97460938 0.01367188 C21.51919628 0.65309701 22.64527516 1.73068108 24.84375 4.53125 C25.95303599 6.99948225 26.90215832 9.36083851 27.78125 11.90625 C28.03213379 12.60363281 28.28301758 13.30101562 28.54150391 14.01953125 C29.31891758 16.18668819 30.08128777 18.35879509 30.84375 20.53125 C31.34110917 21.9197511 31.83976645 23.30778804 32.33984375 24.6953125 C33.51864132 27.97015822 34.68481606 31.24931317 35.84375 34.53125 C40.52639875 19.08379141 40.52639875 19.08379141 44.84375 3.53125 C48.14375 3.53125 51.44375 3.53125 54.84375 3.53125 C55.60515725 18.43307758 55.9918358 33.32822328 56.07592773 48.24853516 C56.08781058 50.06221607 56.10490178 51.87587033 56.12719727 53.68945312 C56.15705587 56.26058424 56.16710509 58.83105902 56.171875 61.40234375 C56.18418152 62.1794017 56.19648804 62.95645966 56.20916748 63.75706482 C56.19715902 66.66721719 56.17881452 68.95124522 54.7019043 71.5078125 C50.23305667 73.96917228 44.3682788 73.086041 39.40625 73.09375 C37.54516602 73.14885742 37.54516602 73.14885742 35.64648438 73.20507812 C26.58389458 73.24919024 26.58389458 73.24919024 23.109375 69.87890625 C21.915461 66.72093003 20.84821688 63.68216644 20.03125 60.40625 C18.12665032 53.23914197 15.71082603 46.32326672 13.12963867 39.37255859 C10.38875917 31.80991372 10.38875917 31.80991372 10.84375 27.53125 C10.18375 27.53125 9.52375 27.53125 8.84375 27.53125 C8.72837891 28.31161621 8.61300781 29.09198242 8.49414062 29.89599609 C7.2721858 38.01619984 5.87890802 46.08969238 4.34375 54.15625 C4.13105469 55.31253906 3.91835937 56.46882813 3.69921875 57.66015625 C3.48910156 58.76488281 3.27898437 59.86960937 3.0625 61.0078125 C2.87623047 61.99861816 2.68996094 62.98942383 2.49804688 64.01025391 C1.84375 66.53125 1.84375 66.53125 -0.15625 69.53125 C-2.76680594 69.78015658 -5.11719922 69.8585477 -7.71875 69.78125 C-8.76579102 69.77351563 -8.76579102 69.77351563 -9.83398438 69.765625 C-15.0020782 69.6854218 -15.0020782 69.6854218 -16.15625 68.53125 C-16.12496656 65.46681625 -16.02287195 62.43761757 -15.86328125 59.37890625 C-15.81581253 58.44039322 -15.76834381 57.50188019 -15.71943665 56.53492737 C-15.18943861 46.91967586 -14.26417712 37.36045353 -13.16430664 27.79516602 C-12.83738426 24.91262193 -12.53690542 22.02797484 -12.23632812 19.14257812 C-12.02763777 17.29148603 -11.81741203 15.44056622 -11.60546875 13.58984375 C-11.51988205 12.73579453 -11.43429535 11.8817453 -11.34611511 11.0018158 C-10.90559935 7.38547057 -10.50898306 5.0550235 -8.45043945 1.99829102 C-5.47656326 0.09661793 -3.51996094 0.01464036 0 0 Z " fill="#2F4631" transform="translate(134.15625,212.46875)"/>
<path d="M0 0 C3.3 0 6.6 0 10 0 C10.76140725 14.90182758 11.1480858 29.79697328 11.23217773 44.71728516 C11.24406058 46.53096607 11.26115178 48.34462033 11.28344727 50.15820312 C11.31330587 52.72933424 11.32335509 55.29980902 11.328125 57.87109375 C11.34043152 58.6481517 11.35273804 59.42520966 11.36541748 60.22581482 C11.35337992 63.14302015 11.33079338 65.42602383 9.85327148 67.98974609 C7.17569743 69.44934317 5.05798284 69.3374339 2.01953125 69.29296875 C0.85615234 69.28330078 -0.30722656 69.27363281 -1.50585938 69.26367188 C-3.32827148 69.2259668 -3.32827148 69.2259668 -5.1875 69.1875 C-6.41404297 69.17396484 -7.64058594 69.16042969 -8.90429688 69.14648438 C-11.93663664 69.11108741 -14.96809996 69.0617076 -18 69 C-17.823479 68.39526855 -17.64695801 67.79053711 -17.46508789 67.16748047 C-16.66069144 64.40433503 -15.86155523 61.63969453 -15.0625 58.875 C-14.78470703 57.92367187 -14.50691406 56.97234375 -14.22070312 55.9921875 C-12.12467885 48.71923581 -10.86568339 42.23756068 -10.9375 34.625 C-10.95103516 32.75714844 -10.95103516 32.75714844 -10.96484375 30.8515625 C-10.97644531 29.91054687 -10.98804688 28.96953125 -11 28 C-10.34 28.99 -9.68 29.98 -9 31 C-4.31735125 15.55254141 -4.31735125 15.55254141 0 0 Z " fill="#E1662E" transform="translate(179,216)"/>
<path d="M0 0 C3.3 0 6.6 0 10 0 C12.79637013 5.38089403 15.14803754 10.70795784 17.125 16.4375 C17.38361816 17.18394775 17.64223633 17.93039551 17.90869141 18.69946289 C24.22622224 37.22563218 20.78551777 51.7668531 15 70 C14.01 70 13.02 70 12 70 C9.42249121 66.53567507 8.31780169 63.08278675 7.25 58.9375 C5.33155349 51.88832445 2.9727675 45.0523103 0.46191406 38.19311523 C-4.59729955 24.15055437 -3.92620585 14.371395 0 0 Z " fill="#272F1E" transform="translate(147,214)"/>
<path d="M0 0 C4.91666667 1.91666667 4.91666667 1.91666667 7 4 C7.66 2.68 8.32 1.36 9 0 C13.47915328 -0.02886338 17.95828291 -0.04675187 22.4375 -0.0625 C23.71689453 -0.07087891 24.99628906 -0.07925781 26.31445312 -0.08789062 C28.13686523 -0.09272461 28.13686523 -0.09272461 29.99609375 -0.09765625 C31.12200928 -0.10289307 32.2479248 -0.10812988 33.40795898 -0.11352539 C36 0 36 0 37 1 C37.125 4.5 37.125 4.5 37 8 C34.59629915 10.40370085 30.37855504 9.624605 27 10 C27 17.59 27 25.18 27 33 C24.36 33.33 21.72 33.66 19 34 C18 33 18 33 17.88647461 30.77514648 C17.89171143 29.81680908 17.89694824 28.85847168 17.90234375 27.87109375 C17.90556641 26.83662109 17.90878906 25.80214844 17.91210938 24.73632812 C17.92467773 23.1034082 17.92467773 23.1034082 17.9375 21.4375 C17.94201172 20.34501953 17.94652344 19.25253906 17.95117188 18.12695312 C17.96300174 15.41791505 17.97948457 12.70898401 18 10 C17.09507812 10.03480469 17.09507812 10.03480469 16.171875 10.0703125 C14.97304688 10.09738281 14.97304688 10.09738281 13.75 10.125 C12.96109375 10.14820313 12.1721875 10.17140625 11.359375 10.1953125 C8.79268059 9.9828378 7.2083933 9.28654105 5 8 C5 8.66 5 9.32 5 10 C2 12 2 12 0.125 11.6875 C-0.57625 11.460625 -1.2775 11.23375 -2 11 C-5.64637917 9.99520952 -5.64637917 9.99520952 -9.25 10.8125 C-11.15074924 11.89399368 -11.15074924 11.89399368 -12 14 C-12.39178406 17.60441333 -12.4106758 19.3839863 -10.375 22.4375 C-8.04665519 24.30009031 -8.04665519 24.30009031 -4.9375 23.875 C-1.84912783 23.11181389 -1.84912783 23.11181389 1 21 C4 22.75 4 22.75 7 25 C7 26.32 7 27.64 7 29 C1.11306584 33.57872657 -3.7328497 34.68558022 -11 34 C-15.70775773 32.27985775 -18.71122614 29.7585987 -22 26 C-23.05336511 22.83990467 -23.20032888 20.4446864 -23.25 17.125 C-23.28867187 15.58199219 -23.28867187 15.58199219 -23.328125 14.0078125 C-22.87974703 9.89768113 -21.35575409 7.36610336 -18.46484375 4.453125 C-12.2298455 -0.45833142 -7.86064626 -0.6046651 0 0 Z " fill="#664839" transform="translate(329,222)"/>
<path d="M0 0 C10 0 10 0 12.21875 2.15234375 C12.6415625 3.07144531 13.064375 3.99054688 13.5 4.9375 C15.02611309 8.66541012 15.02611309 8.66541012 18 11 C18.103125 10.46375 18.20625 9.9275 18.3125 9.375 C19.18819532 6.34987072 20.47247161 3.7495511 22 1 C24.3796612 -0.1898306 25.91485735 -0.13349966 28.5625 -0.125 C29.77099609 -0.12886719 29.77099609 -0.12886719 31.00390625 -0.1328125 C33 0 33 0 34 1 C34.01693598 3.37807798 33.97130138 5.72310663 33.87890625 8.09765625 C33.84348976 9.16094398 33.84348976 9.16094398 33.80735779 10.24571228 C33.73055354 12.51817021 33.64660225 14.79030157 33.5625 17.0625 C33.50929604 18.59959319 33.45655554 20.1367025 33.40429688 21.67382812 C33.27491595 25.44942703 33.1391231 29.22474803 33 33 C30.03 33 27.06 33 24 33 C23.67 28.38 23.34 23.76 23 19 C21.35 21.31 19.7 23.62 18 26 C16.68 25.67 15.36 25.34 14 25 C13.01 23.35 12.02 21.7 11 20 C10.67 24.29 10.34 28.58 10 33 C6.7 33 3.4 33 0 33 C0 22.11 0 11.22 0 0 Z " fill="#5C2A10" transform="translate(209,222)"/>
<path d="M0 0 C0.69996094 -0.020625 1.39992188 -0.04125 2.12109375 -0.0625 C7.27248556 -0.10072925 10.79715733 0.86005439 15.375 3.25 C18.60296349 6.79034705 18.95900786 10.39637647 18.7890625 15.03125 C18.05129103 18.98459148 16.37407192 20.57691415 13.375 23.25 C9.29055547 25.16186765 5.85251372 25.46321494 1.375 25.25 C1.375 27.89 1.375 30.53 1.375 33.25 C-6.375 34.375 -6.375 34.375 -8.625 33.25 C-8.64965392 28.71102295 -8.66783789 24.17208457 -8.67993164 19.63305664 C-8.6849714 18.08780234 -8.6918032 16.54255284 -8.70043945 14.99731445 C-8.71252076 12.78074971 -8.71823173 10.56424782 -8.72265625 8.34765625 C-8.72781754 7.6528566 -8.73297882 6.95805695 -8.73829651 6.24220276 C-8.73849277 4.5777067 -8.68689129 2.91334501 -8.625 1.25 C-6.61466806 -0.76033194 -2.74460986 0.01956941 0 0 Z M2.375 9.25 C1.01881501 10.37534105 1.01881501 10.37534105 1.3125 13.3125 C1.333125 14.281875 1.35375 15.25125 1.375 16.25 C3.37454746 16.29254356 5.37541636 16.29080783 7.375 16.25 C8.67133621 15.18354885 8.67133621 15.18354885 8.4375 12.6875 C8.416875 11.883125 8.39625 11.07875 8.375 10.25 C6.3835944 9.86866701 4.38220923 9.53674418 2.375 9.25 Z " fill="#5E280B" transform="translate(255.625,221.75)"/>
<path d="M0 0 C2.97 0 5.94 0 9 0 C12.06398883 5.78753446 14.46223001 11.67118432 16.76171875 17.80078125 C18.13180169 21.34052235 19.66620332 24.77109787 21.30078125 28.1953125 C22 30 22 30 22 33 C18.7 33 15.4 33 12 33 C11.34 31.02 10.68 29.04 10 27 C5.05 27.495 5.05 27.495 0 28 C-0.99 30.475 -0.99 30.475 -2 33 C-5.3 33 -8.6 33 -12 33 C-11.28864631 28.6048504 -9.83563611 24.57738691 -8.25 20.4375 C-7.98558105 19.73947266 -7.72116211 19.04144531 -7.44873047 18.32226562 C-5.09733638 12.15882691 -2.59587691 6.06470357 0 0 Z M4 14 C3.67 15.32 3.34 16.64 3 18 C4.32 17.67 5.64 17.34 7 17 C6.01 16.01 5.02 15.02 4 14 Z " fill="#683316" transform="translate(284,222)"/>
<path d="M0 0 C1.09570312 0.00902344 2.19140625 0.01804688 3.3203125 0.02734375 C4.16335938 0.03894531 5.00640625 0.05054688 5.875 0.0625 C6.205 1.0525 6.535 2.0425 6.875 3.0625 C7.865 3.0625 8.855 3.0625 9.875 3.0625 C9.875 4.3825 9.875 5.7025 9.875 7.0625 C8.125 7.75 8.125 7.75 5.875 8.0625 C4.9778125 7.2890625 4.9778125 7.2890625 4.0625 6.5 C3.340625 6.025625 2.61875 5.55125 1.875 5.0625 C-1.37744051 5.73541873 -4.15628437 6.57814219 -7.125 8.0625 C-7.84659424 9.70613134 -8.51851421 11.37300386 -9.125 13.0625 C-8.795 13.3925 -8.465 13.7225 -8.125 14.0625 C-8.41230055 16.40194736 -8.74436779 18.7364143 -9.125 21.0625 C-5.81063602 22.48294171 -2.73688724 23.79821557 0.875 24.0625 C4.14250881 22.72123157 4.14250881 22.72123157 6.875 21.0625 C9.875 22.8125 9.875 22.8125 12.875 25.0625 C12.875 26.3825 12.875 27.7025 12.875 29.0625 C6.98806584 33.64122657 2.1421503 34.74808022 -5.125 34.0625 C-9.83275773 32.34235775 -12.83622614 29.8210987 -16.125 26.0625 C-17.17836511 22.90240467 -17.32532888 20.5071864 -17.375 17.1875 C-17.41367187 15.64449219 -17.41367187 15.64449219 -17.453125 14.0703125 C-17.00474703 9.96018113 -15.48075409 7.42860336 -12.58984375 4.515625 C-7.9158574 0.83381478 -5.92332754 -0.06301412 0 0 Z " fill="#5E2303" transform="translate(323.125,221.9375)"/>
<path d="M0 0 C0.721875 0.00257813 1.44375 0.00515625 2.1875 0.0078125 C2.909375 0.00523437 3.63125 0.00265625 4.375 0 C6.1875 0.1328125 6.1875 0.1328125 7.1875 1.1328125 C7.2758967 3.5084977 7.30280305 5.85489924 7.28515625 8.23046875 C7.2837413 8.93932724 7.28232635 9.64818573 7.28086853 10.37852478 C7.27525443 12.65082962 7.26269963 14.92303725 7.25 17.1953125 C7.24498681 18.73242046 7.24042359 20.26952995 7.23632812 21.80664062 C7.22528042 25.58206892 7.20800641 29.35742421 7.1875 33.1328125 C3.8875 33.1328125 0.5875 33.1328125 -2.8125 33.1328125 C-2.83715392 28.59383545 -2.85533789 24.05489707 -2.86743164 19.51586914 C-2.8724714 17.97061484 -2.8793032 16.42536534 -2.88793945 14.88012695 C-2.90002076 12.66356221 -2.90573173 10.44706032 -2.91015625 8.23046875 C-2.91531754 7.5356691 -2.92047882 6.84086945 -2.92579651 6.12501526 C-2.92599277 4.4605192 -2.87439129 2.79615751 -2.8125 1.1328125 C-1.8125 0.1328125 -1.8125 0.1328125 0 0 Z " fill="#552003" transform="translate(196.8125,221.8671875)"/>
<path d="M0 0 C2.64 0 5.28 0 8 0 C11.58614213 3.58614213 12.32270259 7.03315232 13 12 C10.50907189 13.24546405 9.58919267 12.7767578 7 12 C7.165 13.093125 7.33 14.18625 7.5 15.3125 C8.16622112 20.53905159 8.08701543 25.7404008 8 31 C5.36 31 2.72 31 0 31 C0 20.77 0 10.54 0 0 Z " fill="#5B2203" transform="translate(209,224)"/>
<path d="M0 0 C0 2.31 0 4.62 0 7 C-3.3 7 -6.6 7 -10 7 C-9.98839844 8.34835938 -9.97679687 9.69671875 -9.96484375 11.0859375 C-9.95546599 12.84895695 -9.94636577 14.6119779 -9.9375 16.375 C-9.92912109 17.26445312 -9.92074219 18.15390625 -9.91210938 19.0703125 C-9.90888672 19.92109375 -9.90566406 20.771875 -9.90234375 21.6484375 C-9.89710693 22.43395996 -9.89187012 23.21948242 -9.88647461 24.02880859 C-10 26 -10 26 -11 28 C-12.65 28 -14.3 28 -16 28 C-16.33 20.41 -16.66 12.82 -17 5 C-19.31 4.67 -21.62 4.34 -24 4 C-24 3.34 -24 2.68 -24 2 C-17.33640768 -1.33179616 -7.333421 -0.14601944 0 0 Z " fill="#5B2105" transform="translate(364,224)"/>
<path d="M0 0 C5.14860706 1.28715177 5.86461447 2.90658001 9 7 C9.66 4.69 10.32 2.38 11 0 C12.32 0.33 13.64 0.66 15 1 C15.02691685 3.45840605 15.04679802 5.91651882 15.0625 8.375 C15.07087891 9.07367188 15.07925781 9.77234375 15.08789062 10.4921875 C15.11328125 15.7734375 15.11328125 15.7734375 14 18 C9.12314139 16.64531705 7.51407619 14.28324091 5 10 C4.67 12.31 4.34 14.62 4 17 C2.68 17.33 1.36 17.66 0 18 C0 12.06 0 6.12 0 0 Z " fill="#422C21" transform="translate(194,267)"/>
<path d="M0 0 C2.9375 1.1875 2.9375 1.1875 6 3 C6.875 5.6875 6.875 5.6875 7 8 C0.76422111 12.29575879 -3.5172931 13.70470699 -11 13 C-15.73542467 11.30239493 -18.12459816 9.091918 -21 5 C-20.01 4.67 -19.02 4.34 -18 4 C-17.773125 4.639375 -17.54625 5.27875 -17.3125 5.9375 C-16.14749104 8.27193661 -16.14749104 8.27193661 -13.375 8.75 C-12.59125 8.8325 -11.8075 8.915 -11 9 C-10.67 8.34 -10.34 7.68 -10 7 C-9.34 6.67 -8.68 6.34 -8 6 C-9.32 5.34 -10.64 4.68 -12 4 C-11.67 3.01 -11.34 2.02 -11 1 C-10.01 1.66 -9.02 2.32 -8 3 C-3.49149818 2.65554402 -3.49149818 2.65554402 0 0 Z " fill="#541F05" transform="translate(329,243)"/>
<path d="M0 0 C3.3 0 6.6 0 10 0 C10.76234588 14.92019795 11.14817005 29.83351737 11.23217773 44.7722168 C11.24407228 46.59273341 11.26117367 48.41322336 11.28344727 50.23364258 C11.31325287 52.81217912 11.32334965 55.39006103 11.328125 57.96875 C11.34043152 58.75096924 11.35273804 59.53318848 11.36541748 60.33911133 C11.35644531 62.51367188 11.35644531 62.51367188 11 66 C9.515 66.99 9.515 66.99 8 68 C8 45.89 8 23.78 8 1 C5.69 1 3.38 1 1 1 C1.33 1.99 1.66 2.98 2 4 C1.01 4.66 0.02 5.32 -1 6 C-0.67 4.02 -0.34 2.04 0 0 Z " fill="#D98554" transform="translate(179,216)"/>
<path d="M0 0 C4.29 0 8.58 0 13 0 C13 1.32 13 2.64 13 4 C10.03 4 7.06 4 4 4 C4 4.99 4 5.98 4 7 C6.64 7 9.28 7 12 7 C11.67 8.32 11.34 9.64 11 11 C8.69 11 6.38 11 4 11 C4 11.66 4 12.32 4 13 C6.97 13 9.94 13 13 13 C13 14.32 13 15.64 13 17 C9.14854957 18.92572521 4.19956748 18.04883218 0 18 C0 12.06 0 6.12 0 0 Z " fill="#5D4941" transform="translate(317,267)"/>
<path d="M0 0 C1.65 0 3.3 0 5 0 C6.98 5.28 8.96 10.56 11 16 C9.02 16.99 9.02 16.99 7 18 C6.67 16.68 6.34 15.36 6 14 C2.56769552 14.26393501 2.56769552 14.26393501 -1 15 C-1.99 16.485 -1.99 16.485 -3 18 C-3.99 17.67 -4.98 17.34 -6 17 C-4.89061647 10.69403048 -3.06802099 5.62470514 0 0 Z " fill="#392318" transform="translate(227,267)"/>
<path d="M0 0 C0.99 0.66 1.98 1.32 3 2 C3 2.99 3 3.98 3 5 C-0.62326739 6.2077558 -1.64146369 5.54311128 -5 4 C-5 4.66 -5 5.32 -5 6 C-3.2984375 6.4640625 -3.2984375 6.4640625 -1.5625 6.9375 C2 8 2 8 3 9 C3.25 12.4375 3.25 12.4375 3 16 C-0.35327639 18.23551759 -0.90743657 18.17283528 -4.6875 17.625 C-5.49574219 17.51414062 -6.30398438 17.40328125 -7.13671875 17.2890625 C-7.75160156 17.19367188 -8.36648438 17.09828125 -9 17 C-9.33 15.68 -9.66 14.36 -10 13 C-6.94736336 12.01879536 -5.05263664 12.01879536 -2 13 C-4.31856917 11.45428722 -6.50638429 10.20381448 -9 9 C-9 6.36 -9 3.72 -9 1 C-5.98131566 -0.50934217 -3.32702771 -0.17510672 0 0 Z " fill="#4C3A2F" transform="translate(352,267)"/>
<path d="M0 0 C0.69996094 -0.020625 1.39992188 -0.04125 2.12109375 -0.0625 C7.26002872 -0.10063681 10.81878727 0.8371984 15.375 3.25 C15.705 3.91 16.035 4.57 16.375 5.25 C15.385 5.25 14.395 5.25 13.375 5.25 C13.045 5.91 12.715 6.57 12.375 7.25 C11.715 6.92 11.055 6.59 10.375 6.25 C10.375 9.22 10.375 12.19 10.375 15.25 C9.715 15.25 9.055 15.25 8.375 15.25 C8.375 13.6 8.375 11.95 8.375 10.25 C6.395 10.25 4.415 10.25 2.375 10.25 C2.045 12.23 1.715 14.21 1.375 16.25 C1.045 16.25 0.715 16.25 0.375 16.25 C-0.10837596 9.96611253 -0.10837596 9.96611253 2.0625 6.75 C4.375 5.25 4.375 5.25 7.125 5.5 C7.8675 5.7475 8.61 5.995 9.375 6.25 C9.375 5.59 9.375 4.93 9.375 4.25 C4.39157457 3.22775889 -0.55045485 2.8867694 -5.625 3.25 C-7.48465075 5.10965075 -6.86587549 8.19889119 -6.94140625 10.69140625 C-6.98330078 11.99658203 -7.02519531 13.30175781 -7.06835938 14.64648438 C-7.10817608 16.0351533 -7.14788825 17.42382522 -7.1875 18.8125 C-7.23067989 20.20509183 -7.274294 21.59767028 -7.31835938 22.99023438 C-7.42485876 26.41004801 -7.52686923 29.82993763 -7.625 33.25 C-7.955 33.25 -8.285 33.25 -8.625 33.25 C-8.64965392 28.71102295 -8.66783789 24.17208457 -8.67993164 19.63305664 C-8.6849714 18.08780234 -8.6918032 16.54255284 -8.70043945 14.99731445 C-8.71252076 12.78074971 -8.71823173 10.56424782 -8.72265625 8.34765625 C-8.72781754 7.6528566 -8.73297882 6.95805695 -8.73829651 6.24220276 C-8.73849277 4.5777067 -8.68689129 2.91334501 -8.625 1.25 C-6.61466806 -0.76033194 -2.74460986 0.01956941 0 0 Z " fill="#623A26" transform="translate(255.625,221.75)"/>
<path d="M0 0 C1.32 0 2.64 0 4 0 C4.99 2.64 5.98 5.28 7 8 C8.77706209 5.33440687 9.87548273 2.9719385 11 0 C12.65 0 14.3 0 16 0 C14.79662881 6.89203498 12.67864914 12.06080693 9 18 C7.171875 17.859375 7.171875 17.859375 5 17 C3.515625 14.453125 3.515625 14.453125 2.25 11.25 C1.82203125 10.20328125 1.3940625 9.1565625 0.953125 8.078125 C0.05205896 5.16812485 -0.20109604 3.01644053 0 0 Z " fill="#644D43" transform="translate(289,267)"/>
<path d="M0 0 C0.99 0 1.98 0 3 0 C3.33 0.66 3.66 1.32 4 2 C4.99 2 5.98 2 7 2 C7.18175781 2.84884766 7.18175781 2.84884766 7.3671875 3.71484375 C7.53476562 4.44832031 7.70234375 5.18179688 7.875 5.9375 C8.11863281 7.03384766 8.11863281 7.03384766 8.3671875 8.15234375 C8.82961523 10.20700294 8.82961523 10.20700294 11 11 C10.67 12.65 10.34 14.3 10 16 C9.34 15.34 8.68 14.68 8 14 C5.26565038 13.6936141 2.61720179 13.4886664 -0.125 13.375 C-0.87910156 13.33632812 -1.63320313 13.29765625 -2.41015625 13.2578125 C-4.27303184 13.16348969 -6.13648255 13.08065338 -8 13 C-6.79618552 10.50638429 -5.54571278 8.31856917 -4 6 C-0.875 5.8125 -0.875 5.8125 2 6 C2 5.01 2 4.02 2 3 C1.34 3 0.68 3 0 3 C0 2.01 0 1.02 0 0 Z " fill="#582006" transform="translate(290,235)"/>
<path d="M0 0 C3.3 0 6.6 0 10 0 C14.57142857 7.28571429 14.57142857 7.28571429 14 12 C15.65 12.33 17.3 12.66 19 13 C18 15 17 17 16 19 C15.34 19 14.68 19 14 19 C14 19.66 14 20.32 14 21 C13.01 20.67 12.02 20.34 11 20 C10.67 24.29 10.34 28.58 10 33 C9.34 33 8.68 33 8 33 C7.67 26.73 7.34 20.46 7 14 C8.65 14 10.3 14 12 14 C11.71872579 12.51882199 11.42466268 11.04006751 11.125 9.5625 C10.96257812 8.73878906 10.80015625 7.91507813 10.6328125 7.06640625 C10.42398438 6.38449219 10.21515625 5.70257813 10 5 C9.34 4.67 8.68 4.34 8 4 C8 3.34 8 2.68 8 2 C6.576875 2.2784375 6.576875 2.2784375 5.125 2.5625 C2 3 2 3 0 2 C0 1.34 0 0.68 0 0 Z " fill="#55250B" transform="translate(209,222)"/>
<path d="M0 0 C1.42762262 8.04972752 1.42762262 8.04972752 -0.125 11.5 C-2.39393114 13.31514492 -4.13755104 13.69054606 -7 14 C-7.33 14.99 -7.66 15.98 -8 17 C-10.31 17 -12.62 17 -15 17 C-15 16.34 -15 15.68 -15 15 C-15.66 15 -16.32 15 -17 15 C-17 14.01 -17 13.02 -17 12 C-14.66666667 12 -12.33333333 12 -10 12 C-9.67 11.34 -9.34 10.68 -9 10 C-8.34 10 -7.68 10 -7 10 C-7 7.03 -7 4.06 -7 1 C-4 0 -4 0 0 0 Z " fill="#521F04" transform="translate(273,227)"/>
<path d="M0 0 C4.62 0 9.24 0 14 0 C14 1.32 14 2.64 14 4 C12.35 4 10.7 4 9 4 C9 8.29 9 12.58 9 17 C7.68 17.33 6.36 17.66 5 18 C3.61773984 15.23547967 3.90474613 12.9538637 3.9375 9.875 C3.94652344 8.77929688 3.95554688 7.68359375 3.96484375 6.5546875 C3.97644531 5.71164062 3.98804688 4.86859375 4 4 C2.35 4 0.7 4 -1 4 C-0.67 2.68 -0.34 1.36 0 0 Z " fill="#877C76" transform="translate(247,267)"/>
<path d="M0 0 C0.721875 0.00257813 1.44375 0.00515625 2.1875 0.0078125 C2.909375 0.00523437 3.63125 0.00265625 4.375 0 C6.1875 0.1328125 6.1875 0.1328125 7.1875 1.1328125 C7.2758967 3.5084977 7.30280305 5.85489924 7.28515625 8.23046875 C7.2837413 8.93932724 7.28232635 9.64818573 7.28086853 10.37852478 C7.27525443 12.65082962 7.26269963 14.92303725 7.25 17.1953125 C7.24498681 18.73242046 7.24042359 20.26952995 7.23632812 21.80664062 C7.22528042 25.58206892 7.20800641 29.35742421 7.1875 33.1328125 C6.8575 33.1328125 6.5275 33.1328125 6.1875 33.1328125 C5.8575 25.2128125 5.5275 17.2928125 5.1875 9.1328125 C4.8575 9.1328125 4.5275 9.1328125 4.1875 9.1328125 C4.1875 7.1528125 4.1875 5.1728125 4.1875 3.1328125 C2.8675 3.1328125 1.5475 3.1328125 0.1875 3.1328125 C-0.87530504 9.42926253 -1.13361895 15.69547857 -1.375 22.0703125 C-1.41818359 23.13572266 -1.46136719 24.20113281 -1.50585938 25.29882812 C-1.61124489 27.91004693 -1.71337088 30.52134996 -1.8125 33.1328125 C-2.1425 33.1328125 -2.4725 33.1328125 -2.8125 33.1328125 C-2.83715392 28.59383545 -2.85533789 24.05489707 -2.86743164 19.51586914 C-2.8724714 17.97061484 -2.8793032 16.42536534 -2.88793945 14.88012695 C-2.90002076 12.66356221 -2.90573173 10.44706032 -2.91015625 8.23046875 C-2.91531754 7.5356691 -2.92047882 6.84086945 -2.92579651 6.12501526 C-2.92599277 4.4605192 -2.87439129 2.79615751 -2.8125 1.1328125 C-1.8125 0.1328125 -1.8125 0.1328125 0 0 Z " fill="#A68E7F" transform="translate(196.8125,221.8671875)"/>
<path d="M0 0 C1.23556641 0.01740234 1.23556641 0.01740234 2.49609375 0.03515625 C3.32238281 0.04417969 4.14867187 0.05320313 5 0.0625 C5.63808594 0.07410156 6.27617187 0.08570313 6.93359375 0.09765625 C11.24733749 8.24583887 15.38969129 16.9530032 16.93359375 26.09765625 C16.27359375 26.09765625 15.61359375 26.09765625 14.93359375 26.09765625 C14.93359375 25.10765625 14.93359375 24.11765625 14.93359375 23.09765625 C14.27359375 23.09765625 13.61359375 23.09765625 12.93359375 23.09765625 C11.44859375 18.14765625 11.44859375 18.14765625 9.93359375 13.09765625 C9.27359375 13.09765625 8.61359375 13.09765625 7.93359375 13.09765625 C7.38011735 11.02211977 6.93359375 9.25399661 6.93359375 7.09765625 C6.61880929 5.75982232 6.28771719 4.42561916 5.93359375 3.09765625 C3.29359375 2.76765625 0.65359375 2.43765625 -2.06640625 2.09765625 C-2.06640625 3.08765625 -2.06640625 4.07765625 -2.06640625 5.09765625 C-1.40640625 5.09765625 -0.74640625 5.09765625 -0.06640625 5.09765625 C-0.72640625 6.41765625 -1.38640625 7.73765625 -2.06640625 9.09765625 C-2.06640625 8.43765625 -2.06640625 7.77765625 -2.06640625 7.09765625 C-2.72640625 7.09765625 -3.38640625 7.09765625 -4.06640625 7.09765625 C-3.03063989 0.14322495 -3.03063989 0.14322495 0 0 Z " fill="#6A4937" transform="translate(286.06640625,221.90234375)"/>
<path d="M0 0 C4.18099116 1.04524779 4.72845936 1.4105742 7.25 4.5625 C8.03117188 5.52349609 8.03117188 5.52349609 8.828125 6.50390625 C9.21484375 6.99761719 9.6015625 7.49132812 10 8 C8.68 8.99 7.36 9.98 6 11 C5.67 10.67 5.34 10.34 5 10 C4.67 12.31 4.34 14.62 4 17 C2.68 17.33 1.36 17.66 0 18 C0 12.06 0 6.12 0 0 Z " fill="#433227" transform="translate(194,267)"/>
<path d="M0 0 C0.33 0 0.66 0 1 0 C1.33 8.25 1.66 16.5 2 25 C1.34 25 0.68 25 0 25 C-0.66 25.99 -1.32 26.98 -2 28 C-2.99 27.67 -3.98 27.34 -5 27 C-5 23.04 -5 19.08 -5 15 C-3.68 14.34 -2.36 13.68 -1 13 C-0.29327794 9.89069059 -0.29327794 9.89069059 -0.25 6.375 C-0.19328125 5.18648437 -0.1365625 3.99796875 -0.078125 2.7734375 C-0.05234375 1.85820312 -0.0265625 0.94296875 0 0 Z " fill="#501B03" transform="translate(240,225)"/>
<path d="M0 0 C3.0831351 1.19899698 6.06279492 2.47700477 9 4 C8.67 5.32 8.34 6.64 8 8 C7.443125 7.855625 6.88625 7.71125 6.3125 7.5625 C5.549375 7.376875 4.78625 7.19125 4 7 C3.175 6.773125 2.35 6.54625 1.5 6.3125 C-1.42339285 5.94707589 -2.58845624 6.3635953 -5 8 C-6.14352916 10.28705831 -6.10334439 11.59264762 -6.0625 14.125 C-6.041875 15.40375 -6.02125 16.6825 -6 18 C-6.99 17.67 -7.98 17.34 -9 17 C-8.67 14.69 -8.34 12.38 -8 10 C-8.66 9.67 -9.32 9.34 -10 9 C-9.01 6.69 -8.02 4.38 -7 2 C-4.69 2 -2.38 2 0 2 C0 1.34 0 0.68 0 0 Z " fill="#603620" transform="translate(323,226)"/>
<path d="M0 0 C-0.33 0.66 -0.66 1.32 -1 2 C-2.134375 2.12375 -3.26875 2.2475 -4.4375 2.375 C-6.2009375 2.684375 -6.2009375 2.684375 -8 3 C-9.39238047 4.86747263 -9.39238047 4.86747263 -10 7 C-10.66 7.66 -11.32 8.32 -12 9 C-12.24360073 12.12814514 -12.24360073 12.12814514 -12.125 15.625 C-12.10695313 16.81351563 -12.08890625 18.00203125 -12.0703125 19.2265625 C-12.04710937 20.14179688 -12.02390625 21.05703125 -12 22 C-12.66 22 -13.32 22 -14 22 C-14.33 22.99 -14.66 23.98 -15 25 C-16.05336511 21.83990467 -16.20032888 19.4446864 -16.25 16.125 C-16.28867187 14.58199219 -16.28867187 14.58199219 -16.328125 13.0078125 C-15.87974703 8.89768113 -14.35575409 6.36610336 -11.46484375 3.453125 C-5.44426197 -1.28943047 -5.44426197 -1.28943047 0 0 Z " fill="#65402D" transform="translate(322,223)"/>
<path d="M0 0 C0.66 0.33 1.32 0.66 2 1 C4.53012048 16.93975904 4.53012048 16.93975904 2 22 C1.01 22 0.02 22 -1 22 C-2.17832621 18.46502138 -2.18397309 15.24106929 -2.1875 11.5625 C-2.20167969 10.24378906 -2.21585937 8.92507812 -2.23046875 7.56640625 C-2.02228903 4.3449133 -1.72168766 2.66079001 0 0 Z " fill="#642403" transform="translate(351,230)"/>
<path d="M0 0 C2.475 0.495 2.475 0.495 5 1 C5.02691685 3.45840605 5.04679802 5.91651882 5.0625 8.375 C5.07087891 9.07367188 5.07925781 9.77234375 5.08789062 10.4921875 C5.11328125 15.7734375 5.11328125 15.7734375 4 18 C2.68 17.67 1.36 17.34 0 17 C0 11.39 0 5.78 0 0 Z " fill="#7C7068" transform="translate(272,267)"/>
<path d="M0 0 C0.33 0.99 0.66 1.98 1 3 C-2.11522778 7.62564125 -4.3744119 9.8519208 -10 11 C-13.375 11.125 -13.375 11.125 -16 11 C-16 13.64 -16 16.28 -16 19 C-17.32 18.67 -18.64 18.34 -20 18 C-19.34 15.03 -18.68 12.06 -18 9 C-17.34 9 -16.68 9 -16 9 C-15.67 8.34 -15.34 7.68 -15 7 C-12.69 7.33 -10.38 7.66 -8 8 C-7.67 6.68 -7.34 5.36 -7 4 C-5.35 4 -3.7 4 -2 4 C-1.67 3.01 -1.34 2.02 -1 1 C-0.67 0.67 -0.34 0.34 0 0 Z " fill="#6E4E3F" transform="translate(273,236)"/>
<path d="M0 0 C4.47915328 -0.02886338 8.95828291 -0.04675187 13.4375 -0.0625 C14.71689453 -0.07087891 15.99628906 -0.07925781 17.31445312 -0.08789062 C19.13686523 -0.09272461 19.13686523 -0.09272461 20.99609375 -0.09765625 C22.12200928 -0.10289307 23.2479248 -0.10812988 24.40795898 -0.11352539 C27 0 27 0 28 1 C28.04092937 3.33297433 28.04241723 5.66705225 28 8 C27.01 8.495 27.01 8.495 26 9 C26 6.69 26 4.38 26 2 C14.12 2.99 14.12 2.99 2 4 C2 4.66 2 5.32 2 6 C4.31 6.33 6.62 6.66 9 7 C9 7.66 9 8.32 9 9 C6.69 8.67 4.38 8.34 2 8 C1.67 6.35 1.34 4.7 1 3 C1.66 2.67 2.32 2.34 3 2 C2.01 1.34 1.02 0.68 0 0 Z " fill="#7E5A46" transform="translate(338,222)"/>
<path d="M0 0 C1.74627478 2.61941217 2.38722388 4.03824877 3 7 C3.66 6.67 4.32 6.34 5 6 C5.8125 8.0625 5.8125 8.0625 6 11 C4.98828125 12.609375 4.98828125 12.609375 3.625 14.3125 C0.54724103 18.18725441 0.40576272 21.13084737 0 26 C-0.66 26.99 -1.32 27.98 -2 29 C-2.32001346 19.23958934 -1.11306313 9.67967405 0 0 Z " fill="#405343" transform="translate(121,241)"/>
<path d="M0 0 C0.33 0.66 0.66 1.32 1 2 C1.99 2 2.98 2 4 2 C5.4606285 4.64738916 6 5.89448334 6 9 C2.7 9 -0.6 9 -4 9 C-4.66 7.02 -5.32 5.04 -6 3 C-9.63 3.33 -13.26 3.66 -17 4 C-17 3.34 -17 2.68 -17 2 C-14.52076199 1.97314905 -12.0418116 1.95323453 -9.5625 1.9375 C-8.85544922 1.92912109 -8.14839844 1.92074219 -7.41992188 1.91210938 C-5.61306441 1.90346412 -3.80612397 1.94779989 -2 2 C-1.67 2.33 -1.34 2.66 -1 3 C-0.67 2.01 -0.34 1.02 0 0 Z " fill="#634232" transform="translate(300,246)"/>
<path d="M0 0 C0.66 0.66 1.32 1.32 2 2 C1.67 3.98 1.34 5.96 1 8 C-6.59 8 -14.18 8 -22 8 C-21.67 6.02 -21.34 4.04 -21 2 C-20.01 1.67 -19.02 1.34 -18 1 C-18 2.98 -18 4.96 -18 7 C-15.36 6.67 -12.72 6.34 -10 6 C-9.67 5.01 -9.34 4.02 -9 3 C-8.54625 3.495 -8.0925 3.99 -7.625 4.5 C-6.12364481 6.22609337 -6.12364481 6.22609337 -4 6 C-3.566875 5.071875 -3.566875 5.071875 -3.125 4.125 C-2 2 -2 2 0 0 Z " fill="#E16223" transform="translate(186,275)"/>
<path d="M0 0 C2.9375 1.1875 2.9375 1.1875 6 3 C6.875 5.6875 6.875 5.6875 7 8 C5.35 8.99 3.7 9.98 2 11 C0.515 8.03 0.515 8.03 -1 5 C-2.60875 5.309375 -2.60875 5.309375 -4.25 5.625 C-7.87619096 5.9876191 -9.08291076 5.98362069 -12 4 C-11.67 3.01 -11.34 2.02 -11 1 C-9.515 1.99 -9.515 1.99 -8 3 C-3.49149818 2.65554402 -3.49149818 2.65554402 0 0 Z " fill="#6B493B" transform="translate(329,243)"/>
<path d="M0 0 C0.33 0 0.66 0 1 0 C0.85831863 1.43791516 0.71148957 2.8753237 0.5625 4.3125 C0.48128906 5.11300781 0.40007812 5.91351563 0.31640625 6.73828125 C0 9 0 9 -1 12 C6.59 12 14.18 12 22 12 C22 12.66 22 13.32 22 14 C13.42 14 4.84 14 -4 14 C-2.68 9.38 -1.36 4.76 0 0 Z " fill="#BC693B" transform="translate(165,271)"/>
<path d="M0 0 C0.33 0 0.66 0 1 0 C1 10.23 1 20.46 1 31 C-1.64 31 -4.28 31 -7 31 C-7 23.41 -7 15.82 -7 8 C-6.67 8 -6.34 8 -6 8 C-5.67 14.27 -5.34 20.54 -5 27 C-3.68 27.33 -2.36 27.66 -1 28 C-0.67 18.76 -0.34 9.52 0 0 Z " fill="#421E0C" transform="translate(202,224)"/>
<path d="M0 0 C1.32 0 2.64 0 4 0 C4.83986084 1.93467942 5.67168027 3.87285129 6.5 5.8125 C7.19609375 7.43091797 7.19609375 7.43091797 7.90625 9.08203125 C9 12 9 12 9 15 C6.75 15.0625 6.75 15.0625 4 14 C1.25814547 9.75143946 -0.66028295 5.11719288 0 0 Z " fill="#40281C" transform="translate(289,267)"/>
<path d="M0 0 C1.48831242 0.00667405 2.97660807 0.01863442 4.46484375 0.03515625 C5.22345703 0.03966797 5.98207031 0.04417969 6.76367188 0.04882812 C8.64326246 0.06064945 10.52281274 0.07858547 12.40234375 0.09765625 C12.40234375 0.75765625 12.40234375 1.41765625 12.40234375 2.09765625 C11.40332031 2.15824219 10.40429688 2.21882812 9.375 2.28125 C8.08464844 2.36503906 6.79429687 2.44882813 5.46484375 2.53515625 C4.17707031 2.61636719 2.88929688 2.69757813 1.5625 2.78125 C-1.45789582 2.74684813 -1.45789582 2.74684813 -2.59765625 4.09765625 C-2.75624467 6.24152282 -2.84894923 8.39032463 -2.9140625 10.5390625 C-2.95595703 11.84423828 -2.99785156 13.14941406 -3.04101562 14.49414062 C-3.08083233 15.88280955 -3.1205445 17.27148147 -3.16015625 18.66015625 C-3.20333614 20.05274808 -3.24695025 21.44532653 -3.29101562 22.83789062 C-3.39751501 26.25770426 -3.49952548 29.67759388 -3.59765625 33.09765625 C-3.92765625 33.09765625 -4.25765625 33.09765625 -4.59765625 33.09765625 C-4.62231017 28.5586792 -4.64049414 24.01974082 -4.65258789 19.48071289 C-4.65762765 17.93545859 -4.66445945 16.39020909 -4.6730957 14.8449707 C-4.68517701 12.62840596 -4.69088798 10.41190407 -4.6953125 8.1953125 C-4.70047379 7.50051285 -4.70563507 6.8057132 -4.71095276 6.08985901 C-4.71114902 4.42536295 -4.65954754 2.76100126 -4.59765625 1.09765625 C-3.59765625 0.09765625 -3.59765625 0.09765625 0 0 Z " fill="#80675D" transform="translate(251.59765625,221.90234375)"/>
<path d="M0 0 C0.33 0.99 0.66 1.98 1 3 C4.00847418 4.22520264 4.00847418 4.22520264 7 5 C4.3694405 6.4092283 1.95899183 7.52274325 -1 8 C-4.05105101 6.982983 -4.82646048 6.17353952 -7 4 C-7.66 4 -8.32 4 -9 4 C-9 3.01 -9 2.02 -9 1 C-3.47033898 -1.61122881 -3.47033898 -1.61122881 0 0 Z " fill="#521E05" transform="translate(317,244)"/>
<path d="M0 0 C0.66 0 1.32 0 2 0 C2.99 2.64 3.98 5.28 5 8 C3.02 8.99 3.02 8.99 1 10 C0.67 8.68 0.34 7.36 0 6 C-3.43230448 6.26393501 -3.43230448 6.26393501 -7 7 C-7.99 8.485 -7.99 8.485 -9 10 C-9.99 9.67 -10.98 9.34 -12 9 C-11.67 7.02 -11.34 5.04 -11 3 C-10.67 3.66 -10.34 4.32 -10 5 C-7.03 5 -4.06 5 -1 5 C-0.67 3.35 -0.34 1.7 0 0 Z " fill="#514340" transform="translate(233,275)"/>
<path d="M0 0 C0.33 0 0.66 0 1 0 C1.19582583 4.31216481 1.38027074 8.6247409 1.5625 12.9375 C1.61857422 14.16919922 1.67464844 15.40089844 1.73242188 16.66992188 C1.78076172 17.83974609 1.82910156 19.00957031 1.87890625 20.21484375 C1.9260376 21.29886475 1.97316895 22.38288574 2.02172852 23.49975586 C2 26 2 26 1 27 C1.66 27.66 2.32 28.32 3 29 C1.68 29.33 0.36 29.66 -1 30 C-1.02465746 25.8882744 -1.04283959 21.77657722 -1.05493164 17.66479492 C-1.0599708 16.26504772 -1.06680216 14.8653058 -1.07543945 13.46557617 C-1.0875232 11.45754223 -1.09269807 9.44947043 -1.09765625 7.44140625 C-1.10289307 6.23170166 -1.10812988 5.02199707 -1.11352539 3.77563477 C-1 1 -1 1 0 0 Z " fill="#472007" transform="translate(249,225)"/>
<path d="M0 0 C0.99 0.495 0.99 0.495 2 1 C2 9.91 2 18.82 2 28 C3.98 28.33 5.96 28.66 8 29 C8 29.66 8 30.32 8 31 C5.36 31 2.72 31 0 31 C0 20.77 0 10.54 0 0 Z " fill="#3C1E0E" transform="translate(209,224)"/>
<path d="M0 0 C1.98 0 3.96 0 6 0 C6 5.61 6 11.22 6 17 C5.67 17 5.34 17 5 17 C4.67 12.38 4.34 7.76 4 3 C2.35 5.31 0.7 7.62 -1 10 C-2.32 9.67 -3.64 9.34 -5 9 C-5.33 8.01 -5.66 7.02 -6 6 C-4.68 6.33 -3.36 6.66 -2 7 C-2 6.34 -2 5.68 -2 5 C-1.34 5 -0.68 5 0 5 C0 3.35 0 1.7 0 0 Z " fill="#624130" transform="translate(228,238)"/>
<path d="M0 0 C2.33595238 0.31445513 4.66905466 0.6503582 7 1 C8.66628955 1.03545297 10.33409803 1.05048188 12 1 C11.67 2.32 11.34 3.64 11 5 C3.57142857 6.28571429 3.57142857 6.28571429 0 5 C-0.5625 3.0625 -0.5625 3.0625 -1 1 C-0.67 0.67 -0.34 0.34 0 0 Z " fill="#574037" transform="translate(343,279)"/>
<path d="M0 0 C-1.22589844 0.77923828 -1.22589844 0.77923828 -2.4765625 1.57421875 C-5.29645969 3.79955806 -5.29645969 3.79955806 -5.5234375 7.20703125 C-5.47445312 8.39683594 -5.42546875 9.58664063 -5.375 10.8125 C-5.32988281 12.05128906 -5.28476563 13.29007813 -5.23828125 14.56640625 C-4.94245973 20.97553762 -4.94245973 20.97553762 -3 27 C-2.34 27 -1.68 27 -1 27 C-0.67 25.68 -0.34 24.36 0 23 C0 24.98 0 26.96 0 29 C-1.98 28.67 -3.96 28.34 -6 28 C-7.3300103 19.02243049 -7.08788039 10.05168034 -7 1 C-4.53721199 -0.231394 -2.7204945 -0.07159196 0 0 Z " fill="#4D2007" transform="translate(217,224)"/>
<path d="M0 0 C0.6875 2.3125 0.6875 2.3125 1 5 C-0.3125 6.8125 -0.3125 6.8125 -2 8 C-2.66 8 -3.32 8 -4 8 C-4.33 8.66 -4.66 9.32 -5 10 C-5.99 10.495 -5.99 10.495 -7 11 C-7 7.7 -7 4.4 -7 1 C-4 0 -4 0 0 0 Z " fill="#5C2A11" transform="translate(273,227)"/>
<path d="M0 0 C0 0.99 0 1.98 0 3 C-0.99 3.66 -1.98 4.32 -3 5 C-3.99 4.67 -4.98 4.34 -6 4 C-6 5.65 -6 7.3 -6 9 C-6.66 9 -7.32 9 -8 9 C-8 9.66 -8 10.32 -8 11 C-9.32 10.34 -10.64 9.68 -12 9 C-11.67 8.34 -11.34 7.68 -11 7 C-10.34 7 -9.68 7 -9 7 C-8.896875 6.21625 -8.79375 5.4325 -8.6875 4.625 C-7.42677784 -0.18866644 -4.38049352 -0.23678343 0 0 Z " fill="#531E03" transform="translate(234,234)"/>
<path d="M0 0 C1.65 0 3.3 0 5 0 C5.66 2.31 6.32 4.62 7 7 C6.01 6.67 5.02 6.34 4 6 C3.67 5.34 3.34 4.68 3 4 C2.67 4.66 2.34 5.32 2 6 C2.66 6.33 3.32 6.66 4 7 C4 7.99 4 8.98 4 10 C-0.75 9.125 -0.75 9.125 -3 8 C-2.690625 7.236875 -2.38125 6.47375 -2.0625 5.6875 C-1.32106407 3.81210323 -0.63771783 1.91315348 0 0 Z " fill="#594B45" transform="translate(227,267)"/>
<path d="M0 0 C2.0625 0.4375 2.0625 0.4375 4 1 C4.02691685 3.45840605 4.04679802 5.91651882 4.0625 8.375 C4.07087891 9.07367188 4.07925781 9.77234375 4.08789062 10.4921875 C4.11328125 15.7734375 4.11328125 15.7734375 3 18 C1.68 17.34 0.36 16.68 -1 16 C-0.01 15.67 0.98 15.34 2 15 C2.33 11.7 2.66 8.4 3 5 C2.34 5 1.68 5 1 5 C0.67 5.99 0.34 6.98 0 8 C-0.33 8 -0.66 8 -1 8 C-1.04241723 5.66705225 -1.04092937 3.33297433 -1 1 C-0.67 0.67 -0.34 0.34 0 0 Z " fill="#706966" transform="translate(205,267)"/>
<path d="M0 0 C1.98 0.66 3.96 1.32 6 2 C6 2.66 6 3.32 6 4 C5.360625 4.28875 4.72125 4.5775 4.0625 4.875 C1.84793921 5.82823451 1.84793921 5.82823451 1 8 C0.9310528 9.37342831 0.91532292 10.75002102 0.9375 12.125 C0.958125 13.40375 0.97875 14.6825 1 16 C0.01 15.67 -0.98 15.34 -2 15 C-1.67 12.69 -1.34 10.38 -1 8 C-1.66 7.67 -2.32 7.34 -3 7 C-2.01 4.69 -1.02 2.38 0 0 Z " fill="#66361E" transform="translate(316,228)"/>
<path d="M0 0 C0 2.31 0 4.62 0 7 C-2.97 7 -5.94 7 -9 7 C-9 6.34 -9 5.68 -9 5 C-7.02 5 -5.04 5 -3 5 C-3 4.01 -3 3.02 -3 2 C-6.96 2 -10.92 2 -15 2 C-15 1.67 -15 1.34 -15 1 C-10.03926578 -0.32286246 -5.08888488 -0.08893197 0 0 Z " fill="#4B1C06" transform="translate(364,224)"/>
<path d="M0 0 C0.99 0.33 1.98 0.66 3 1 C3 6.94 3 12.88 3 19 C2.34 19 1.68 19 1 19 C0.67 12.73 0.34 6.46 0 0 Z " fill="#8E6B5A" transform="translate(216,236)"/>
<path d="M0 0 C4.875 4.75 4.875 4.75 6 7 C4.02 7.99 4.02 7.99 2 9 C1.67 8.67 1.34 8.34 1 8 C0.67 10.31 0.34 12.62 0 15 C-1.32 15.33 -2.64 15.66 -4 16 C-3.67 14.68 -3.34 13.36 -3 12 C-2.67 12.33 -2.34 12.66 -2 13 C-2 10.69 -2 8.38 -2 6 C-1.01 6 -0.02 6 1 6 C0.67 4.02 0.34 2.04 0 0 Z " fill="#614A40" transform="translate(198,269)"/>
<path d="M0 0 C3.3 0 6.6 0 10 0 C10 8.58 10 17.16 10 26 C9.67 26 9.34 26 9 26 C8.67 18.08 8.34 10.16 8 2 C5.69 1.67 3.38 1.34 1 1 C1.33 1.99 1.66 2.98 2 4 C1.01 4.66 0.02 5.32 -1 6 C-0.67 4.02 -0.34 2.04 0 0 Z " fill="#CD997B" transform="translate(179,216)"/>
<path d="M0 0 C2.64 0 5.28 0 8 0 C8.99 2.31 9.98 4.62 11 7 C9.68 6.67 8.36 6.34 7 6 C7 5.34 7 4.68 7 4 C5.35 4.33 3.7 4.66 2 5 C2 4.34 2 3.68 2 3 C1.34 3 0.68 3 0 3 C0 2.01 0 1.02 0 0 Z " fill="#542207" transform="translate(284,224)"/>
<path d="M0 0 C2 2 2 2 2.1953125 5.0390625 C2.17210937 6.22242188 2.14890625 7.40578125 2.125 8.625 C2.10695312 9.81351562 2.08890625 11.00203125 2.0703125 12.2265625 C2.04710937 13.14179688 2.02390625 14.05703125 2 15 C1.01 15 0.02 15 -1 15 C-1.02685412 12.68756208 -1.04632841 10.3750373 -1.0625 8.0625 C-1.07410156 6.77472656 -1.08570313 5.48695313 -1.09765625 4.16015625 C-1 1 -1 1 0 0 Z " fill="#3D2111" transform="translate(253,270)"/>
<path d="M0 0 C1.98 0.66 3.96 1.32 6 2 C5.67 2.99 5.34 3.98 5 5 C6.05270463 6.15811388 6.05270463 6.15811388 8 7 C6.68 8.32 5.36 9.64 4 11 C1.2311455 8.95345537 0.97578287 7.87230967 0.3125 4.375 C0 1 0 1 0 0 Z " fill="#1B2716" transform="translate(143,232)"/>
<path d="M0 0 C0.99 0.66 1.98 1.32 3 2 C3 2.66 3 3.32 3 4 C5.97 4.495 5.97 4.495 9 5 C9 5.99 9 6.98 9 8 C9.99 8.33 10.98 8.66 12 9 C5.54972485 8.73672346 2.52084209 6.49335977 -2 2 C-1.34 1.34 -0.68 0.68 0 0 Z " fill="#6E5042" transform="translate(310,247)"/>
<path d="M0 0 C0.33 0.99 0.66 1.98 1 3 C-2.83314543 8.63697858 -2.83314543 8.63697858 -6.8125 9.875 C-7.8953125 9.936875 -7.8953125 9.936875 -9 10 C-8.34 8.02 -7.68 6.04 -7 4 C-5.35 4 -3.7 4 -2 4 C-1.67 3.01 -1.34 2.02 -1 1 C-0.67 0.67 -0.34 0.34 0 0 Z " fill="#694634" transform="translate(273,236)"/>
<path d="M0 0 C0.99 0.33 1.98 0.66 3 1 C3 1.66 3 2.32 3 3 C3.99 3 4.98 3 6 3 C6 4.32 6 5.64 6 7 C4.1875 7.6875 4.1875 7.6875 2 8 C0.1875 6.875 0.1875 6.875 -1 5 C-0.6875 2.3125 -0.6875 2.3125 0 0 Z " fill="#612B12" transform="translate(327,222)"/>
<path d="M0 0 C1.47906892 -0.02689216 2.95827483 -0.04634621 4.4375 -0.0625 C5.26121094 -0.07410156 6.08492187 -0.08570313 6.93359375 -0.09765625 C9 0 9 0 10 1 C9.90903444 3.86688248 9.76232012 6.70300515 9.5625 9.5625 C9.51029297 10.36880859 9.45808594 11.17511719 9.40429688 12.00585938 C9.27422624 14.00421738 9.13770944 16.00215386 9 18 C8.67 18 8.34 18 8 18 C7.67 12.39 7.34 6.78 7 1 C4.69 1 2.38 1 0 1 C0 0.67 0 0.34 0 0 Z " fill="#847066" transform="translate(233,222)"/>
<path d="M0 0 C2.64 0 5.28 0 8 0 C7 3 7 3 5 4 C3.12620395 4.07033769 1.24998898 4.0843022 -0.625 4.0625 C-1.62789063 4.05347656 -2.63078125 4.04445313 -3.6640625 4.03515625 C-4.43492187 4.02355469 -5.20578125 4.01195312 -6 4 C-6 3.67 -6 3.34 -6 3 C-5.195625 2.87625 -4.39125 2.7525 -3.5625 2.625 C-2.716875 2.41875 -1.87125 2.2125 -1 2 C-0.67 1.34 -0.34 0.68 0 0 Z " fill="#655751" transform="translate(323,281)"/>
<path d="M0 0 C4.875 1.875 4.875 1.875 6 3 C6.66 2.01 7.32 1.02 8 0 C8 2.64 8 5.28 8 8 C6.68 7.67 5.36 7.34 4 7 C4 7.66 4 8.32 4 9 C3.34 9 2.68 9 2 9 C1.67 8.01 1.34 7.02 1 6 C1.66 6 2.32 6 3 6 C3 4.68 3 3.36 3 2 C2.01 2 1.02 2 0 2 C0 1.34 0 0.68 0 0 Z " fill="#735246" transform="translate(330,223)"/>
<path d="M0 0 C3.3 0 6.6 0 10 0 C10.99 1.98 11.98 3.96 13 6 C12.01 6.495 12.01 6.495 11 7 C9.5 5.625 9.5 5.625 8 4 C8 3.34 8 2.68 8 2 C6.576875 2.2784375 6.576875 2.2784375 5.125 2.5625 C2 3 2 3 0 2 C0 1.34 0 0.68 0 0 Z " fill="#746254" transform="translate(209,222)"/>
<path d="M0 0 C1.23556641 0.01740234 1.23556641 0.01740234 2.49609375 0.03515625 C3.32238281 0.04417969 4.14867187 0.05320313 5 0.0625 C5.63808594 0.07410156 6.27617187 0.08570313 6.93359375 0.09765625 C6.60359375 1.08765625 6.27359375 2.07765625 5.93359375 3.09765625 C3.29359375 2.76765625 0.65359375 2.43765625 -2.06640625 2.09765625 C-2.06640625 3.08765625 -2.06640625 4.07765625 -2.06640625 5.09765625 C-1.40640625 5.09765625 -0.74640625 5.09765625 -0.06640625 5.09765625 C-0.72640625 6.41765625 -1.38640625 7.73765625 -2.06640625 9.09765625 C-2.06640625 8.43765625 -2.06640625 7.77765625 -2.06640625 7.09765625 C-2.72640625 7.09765625 -3.38640625 7.09765625 -4.06640625 7.09765625 C-3.03063989 0.14322495 -3.03063989 0.14322495 0 0 Z " fill="#81634F" transform="translate(286.06640625,221.90234375)"/>
<path d="M0 0 C3.96 0 7.92 0 12 0 C12 0.99 12 1.98 12 3 C8.37 3 4.74 3 1 3 C0.67 2.01 0.34 1.02 0 0 Z " fill="#241912" transform="translate(318,268)"/>
<path d="M0 0 C2.38598167 3.57897251 2.78579503 5.71590055 3 10 C2.23351646 12.53037834 1.20996023 14.62847795 0 17 C-0.33 17 -0.66 17 -1 17 C-0.67 11.39 -0.34 5.78 0 0 Z " fill="#5C6D5F" transform="translate(121,241)"/>
<path d="M0 0 C3.63 0.33 7.26 0.66 11 1 C11 1.66 11 2.32 11 3 C9.741875 3.185625 8.48375 3.37125 7.1875 3.5625 C6.12595703 3.71912109 6.12595703 3.71912109 5.04296875 3.87890625 C3 4 3 4 0 3 C0 2.01 0 1.02 0 0 Z " fill="#5A3625" transform="translate(319,252)"/>
<path d="M0 0 C1.65 0 3.3 0 5 0 C4.34 2.97 3.68 5.94 3 9 C2.67 7.68 2.34 6.36 2 5 C1.01 5 0.02 5 -1 5 C-0.67 3.35 -0.34 1.7 0 0 Z " fill="#6D625F" transform="translate(300,267)"/>
<path d="M0 0 C0.99 0.33 1.98 0.66 3 1 C3 2.65 3 4.3 3 6 C0.36 6 -2.28 6 -5 6 C-5 5.01 -5 4.02 -5 3 C-3.68 3 -2.36 3 -1 3 C-0.67 2.01 -0.34 1.02 0 0 Z " fill="#4D2817" transform="translate(239,249)"/>
<path d="M0 0 C0 0.99 0 1.98 0 3 C0.66 3.33 1.32 3.66 2 4 C-1 6 -1 6 -4 6 C-4.12375 5.360625 -4.2475 4.72125 -4.375 4.0625 C-4.684375 3.0415625 -4.684375 3.0415625 -5 2 C-5.66 1.67 -6.32 1.34 -7 1 C-3.375 -1.125 -3.375 -1.125 0 0 Z " fill="#652C0F" transform="translate(294,232)"/>
<path d="M0 0 C0.33 1.65 0.66 3.3 1 5 C-0.98 5 -2.96 5 -5 5 C-5.33 6.98 -5.66 8.96 -6 11 C-6.33 11 -6.66 11 -7 11 C-7.48798077 4.65625 -7.48798077 4.65625 -5.1875 1.5625 C-3 0 -3 0 0 0 Z " fill="#73503D" transform="translate(263,227)"/>
<path d="M0 0 C0.33 0.66 0.66 1.32 1 2 C3.97 2 6.94 2 10 2 C10 2.33 10 2.66 10 3 C9.05125 3.103125 8.1025 3.20625 7.125 3.3125 C3.70892499 3.68539295 3.70892499 3.68539295 2 7 C1.01 6.67 0.02 6.34 -1 6 C-0.67 4.02 -0.34 2.04 0 0 Z " fill="#5B4D45" transform="translate(222,278)"/>
<path d="M0 0 C0.33 0 0.66 0 1 0 C1 3.3 1 6.6 1 10 C2.65 10 4.3 10 6 10 C5.67 10.99 5.34 11.98 5 13 C3.35 13 1.7 13 0 13 C0 8.71 0 4.42 0 0 Z " fill="#382014" transform="translate(317,271)"/>
<path d="M0 0 C1.32 0 2.64 0 4 0 C3.67 2.64 3.34 5.28 3 8 C1.35 6.68 -0.3 5.36 -2 4 C-1.34 2.68 -0.68 1.36 0 0 Z " fill="#5D4337" transform="translate(298,272)"/>
<path d="M0 0 C1.65 0.33 3.3 0.66 5 1 C5.33 2.32 5.66 3.64 6 5 C5.01 5.33 4.02 5.66 3 6 C1.68 4.68 0.36 3.36 -1 2 C-0.67 1.34 -0.34 0.68 0 0 Z " fill="#5B5548" transform="translate(349,267)"/>
<path d="M0 0 C0.33 0 0.66 0 1 0 C1 1.65 1 3.3 1 5 C1.99 5.33 2.98 5.66 4 6 C3.34 7.98 2.68 9.96 2 12 C1.01 11.67 0.02 11.34 -1 11 C-1 10.34 -1 9.68 -1 9 C-0.34 9 0.32 9 1 9 C1 8.01 1 7.02 1 6 C0.01 5.67 -0.98 5.34 -2 5 C-1.34 3.35 -0.68 1.7 0 0 Z " fill="#261309" transform="translate(230,268)"/>
<path d="M0 0 C0.33 0 0.66 0 1 0 C1.33 4.95 1.66 9.9 2 15 C1.01 15.66 0.02 16.32 -1 17 C-0.67 11.39 -0.34 5.78 0 0 Z " fill="#D18350" transform="translate(188,267)"/>
<path d="M0 0 C0.66 0 1.32 0 2 0 C1.67 2.31 1.34 4.62 1 7 C-1.97 6.505 -1.97 6.505 -5 6 C-3.38405168 3.95880212 -1.7143618 1.95927063 0 0 Z " fill="#251007" transform="translate(206,272)"/>
<path d="M0 0 C1.32 0 2.64 0 4 0 C4.66 2.31 5.32 4.62 6 7 C5.34 7 4.68 7 4 7 C4 6.01 4 5.02 4 4 C2.68 4.33 1.36 4.66 0 5 C0 3.35 0 1.7 0 0 Z " fill="#58514E" transform="translate(289,267)"/>
<path d="M0 0 C1.53760842 3.07521683 0.36599236 5.34675118 -0.4375 8.625 C-0.72496094 9.81351562 -1.01242188 11.00203125 -1.30859375 12.2265625 C-1.53675781 13.14179688 -1.76492187 14.05703125 -2 15 C-2.33 15 -2.66 15 -3 15 C-3.35050464 9.158256 -3.16727335 5.1468192 0 0 Z " fill="#442E0F" transform="translate(168,256)"/>
<path d="M0 0 C1.5625 1.0625 1.5625 1.0625 3 3 C2.6875 6.6875 2.6875 6.6875 2 10 C1.34 10 0.68 10 0 10 C-0.19412181 8.52168779 -0.38012131 7.04230684 -0.5625 5.5625 C-0.66691406 4.73878906 -0.77132813 3.91507813 -0.87890625 3.06640625 C-0.91886719 2.38449219 -0.95882813 1.70257813 -1 1 C-0.67 0.67 -0.34 0.34 0 0 Z " fill="#613521" transform="translate(280,245)"/>
<path d="M0 0 C0.33 0 0.66 0 1 0 C1.05447047 1.41623216 1.09300508 2.83308191 1.125 4.25 C1.14820313 5.03890625 1.17140625 5.8278125 1.1953125 6.640625 C0.9828378 9.20731941 0.28654105 10.7916067 -1 13 C-1.66 12.67 -2.32 12.34 -3 12 C-2.01 8.04 -1.02 4.08 0 0 Z " fill="#D69971" transform="translate(173,237)"/>
<path d="M0 0 C0.66 0.66 1.32 1.32 2 2 C1.625 4.625 1.625 4.625 1 7 C0.01 7 -0.98 7 -2 7 C-2 5.02 -2 3.04 -2 1 C-1.34 0.67 -0.68 0.34 0 0 Z " fill="#484B41" transform="translate(164,233)"/>
<path d="M0 0 C2 2 2 2 2.125 5.125 C2.08375 6.07375 2.0425 7.0225 2 8 C0.68 8 -0.64 8 -2 8 C-1.47731534 5.23723823 -0.89130413 2.6739124 0 0 Z " fill="#634737" transform="translate(274,247)"/>
<path d="M0 0 C2.475 0.495 2.475 0.495 5 1 C5 2.65 5 4.3 5 6 C4.01 6.495 4.01 6.495 3 7 C3 6.34 3 5.68 3 5 C2.34 5 1.68 5 1 5 C0.67 3.35 0.34 1.7 0 0 Z " fill="#40473A" transform="translate(145,242)"/>
<path d="M0 0 C1.125 1.5 1.125 1.5 2 4 C1.57598348 6.7773082 0.81108065 9.29639783 0 12 C-0.66 12 -1.32 12 -2 12 C-1.44687265 7.97007218 -0.8441938 3.97977076 0 0 Z " fill="#D9906E" transform="translate(177,222)"/>
<path d="M0 0 C0.804375 0.495 0.804375 0.495 1.625 1 C4.5391061 2.22699204 6.86867708 2.14233286 10 2 C9.01 2.495 9.01 2.495 8 3 C8 3.66 8 4.32 8 5 C5.69 4.67 3.38 4.34 1 4 C0.67 2.68 0.34 1.36 0 0 Z " fill="#846154" transform="translate(317,244)"/>
<path d="M0 0 C0.99 0.33 1.98 0.66 3 1 C3 2.32 3 3.64 3 5 C2.01 5 1.02 5 0 5 C-0.33 6.32 -0.66 7.64 -1 9 C-1.625 7.1875 -1.625 7.1875 -2 5 C-1.34 4.01 -0.68 3.02 0 2 C0 1.34 0 0.68 0 0 Z " fill="#D76F3E" transform="translate(180,217)"/>
<path d="M0 0 C0.33 0 0.66 0 1 0 C1.33 3.3 1.66 6.6 2 10 C1.01 10 0.02 10 -1 10 C-0.67 6.7 -0.34 3.4 0 0 Z " fill="#4B3223" transform="translate(253,275)"/>
<path d="M0 0 C1.67542976 0.28604898 3.34385343 0.61781233 5 1 C4.34 1.66 3.68 2.32 3 3 C3.33 3.66 3.66 4.32 4 5 C2.68 5 1.36 5 0 5 C-0.5625 3.0625 -0.5625 3.0625 -1 1 C-0.67 0.67 -0.34 0.34 0 0 Z " fill="#6A5E58" transform="translate(343,279)"/>
<path d="M0 0 C0.99 0.33 1.98 0.66 3 1 C3 3.31 3 5.62 3 8 C2.01 7.34 1.02 6.68 0 6 C-0.1875 2.875 -0.1875 2.875 0 0 Z " fill="#43210C" transform="translate(194,275)"/>
<path d="M0 0 C0.33 0.66 0.66 1.32 1 2 C3.52733235 2.65555119 3.52733235 2.65555119 6 3 C6 3.99 6 4.98 6 6 C1.25 5.125 1.25 5.125 -1 4 C-0.67 2.68 -0.34 1.36 0 0 Z " fill="#685549" transform="translate(225,271)"/>
<path d="M0 0 C1.32 0.33 2.64 0.66 4 1 C4 2.65 4 4.3 4 6 C2.68 5.67 1.36 5.34 0 5 C0 3.35 0 1.7 0 0 Z " fill="#382419" transform="translate(343,271)"/>
<path d="M0 0 C0.99 0.33 1.98 0.66 3 1 C2.67 1.99 2.34 2.98 2 4 C2.66 4.33 3.32 4.66 4 5 C3.67 5.66 3.34 6.32 3 7 C2.01 7 1.02 7 0 7 C0 4.69 0 2.38 0 0 Z " fill="#364939" transform="translate(122,237)"/>
<path d="M0 0 C2.64 0 5.28 0 8 0 C7.34 1.65 6.68 3.3 6 5 C5.01 4.34 4.02 3.68 3 3 C3.33 2.34 3.66 1.68 4 1 C2.68 0.67 1.36 0.34 0 0 Z " fill="#461F0B" transform="translate(319,222)"/>
<path d="M0 0 C0.33 0 0.66 0 1 0 C1.33 2.64 1.66 5.28 2 8 C1.01 8.66 0.02 9.32 -1 10 C-1.125 2.25 -1.125 2.25 0 0 Z " fill="#D96D30" transform="translate(172,248)"/>
<path d="M0 0 C0.99 0.33 1.98 0.66 3 1 C3 1.99 3 2.98 3 4 C0.69 4.33 -1.62 4.66 -4 5 C-3.34 4.67 -2.68 4.34 -2 4 C-0.86649466 1.98330173 -0.86649466 1.98330173 0 0 Z " fill="#5D392D" transform="translate(329,243)"/>
<path d="M0 0 C1.32 0.33 2.64 0.66 4 1 C4 1.66 4 2.32 4 3 C3.38125 3.28875 2.7625 3.5775 2.125 3.875 C-0.13325765 4.93720042 -0.13325765 4.93720042 -2 7 C-2 5.68 -2 4.36 -2 3 C-1.34 3 -0.68 3 0 3 C0 2.01 0 1.02 0 0 Z " fill="#806050" transform="translate(318,229)"/>
<path d="M0 0 C0.33 0.66 0.66 1.32 1 2 C1.99 2 2.98 2 4 2 C4 3.32 4 4.64 4 6 C2.68 6.33 1.36 6.66 0 7 C0 4.69 0 2.38 0 0 Z " fill="#561E06" transform="translate(329,223)"/>
<path d="M0 0 C2.97 0 5.94 0 9 0 C8.67 0.66 8.34 1.32 8 2 C5.69 1.67 3.38 1.34 1 1 C1.33 1.99 1.66 2.98 2 4 C1.01 4.66 0.02 5.32 -1 6 C-0.67 4.02 -0.34 2.04 0 0 Z " fill="#D6936D" transform="translate(179,216)"/>
<path d="M0 0 C0.99 0 1.98 0 3 0 C3.33 1.98 3.66 3.96 4 6 C2.68 5.34 1.36 4.68 0 4 C0 2.68 0 1.36 0 0 Z " fill="#2C1207" transform="translate(195,269)"/>
<path d="M0 0 C-0.33 0.66 -0.66 1.32 -1 2 C-3.32156597 2.40729228 -5.6568787 2.74438677 -8 3 C-7.67 2.01 -7.34 1.02 -7 0 C-4.3333581 -1.33332095 -2.83319697 -0.67102033 0 0 Z " fill="#5A3A28" transform="translate(322,223)"/>
</svg>
